%TF.GenerationSoftware,KiCad,Pcbnew,9.0.6*%
%TF.CreationDate,2025-12-25T12:15:46+05:30*%
%TF.ProjectId,LIMELIGHT_assignment,4c494d45-4c49-4474-9854-5f6173736967,rev?*%
%TF.SameCoordinates,Original*%
%TF.FileFunction,Copper,L2,Bot*%
%TF.FilePolarity,Positive*%
%FSLAX46Y46*%
G04 Gerber Fmt 4.6, Leading zero omitted, Abs format (unit mm)*
G04 Created by KiCad (PCBNEW 9.0.6) date 2025-12-25 12:15:46*
%MOMM*%
%LPD*%
G01*
G04 APERTURE LIST*
G04 Aperture macros list*
%AMRoundRect*
0 Rectangle with rounded corners*
0 $1 Rounding radius*
0 $2 $3 $4 $5 $6 $7 $8 $9 X,Y pos of 4 corners*
0 Add a 4 corners polygon primitive as box body*
4,1,4,$2,$3,$4,$5,$6,$7,$8,$9,$2,$3,0*
0 Add four circle primitives for the rounded corners*
1,1,$1+$1,$2,$3*
1,1,$1+$1,$4,$5*
1,1,$1+$1,$6,$7*
1,1,$1+$1,$8,$9*
0 Add four rect primitives between the rounded corners*
20,1,$1+$1,$2,$3,$4,$5,0*
20,1,$1+$1,$4,$5,$6,$7,0*
20,1,$1+$1,$6,$7,$8,$9,0*
20,1,$1+$1,$8,$9,$2,$3,0*%
G04 Aperture macros list end*
%TA.AperFunction,ComponentPad*%
%ADD10RoundRect,0.250000X-0.620000X-0.845000X0.620000X-0.845000X0.620000X0.845000X-0.620000X0.845000X0*%
%TD*%
%TA.AperFunction,ComponentPad*%
%ADD11O,1.740000X2.190000*%
%TD*%
%TA.AperFunction,ComponentPad*%
%ADD12C,4.000000*%
%TD*%
%TA.AperFunction,ComponentPad*%
%ADD13RoundRect,0.400000X0.400000X0.400000X-0.400000X0.400000X-0.400000X-0.400000X0.400000X-0.400000X0*%
%TD*%
%TA.AperFunction,ComponentPad*%
%ADD14C,1.600000*%
%TD*%
%TA.AperFunction,ComponentPad*%
%ADD15RoundRect,0.250000X-1.330000X-1.850000X1.330000X-1.850000X1.330000X1.850000X-1.330000X1.850000X0*%
%TD*%
%TA.AperFunction,ComponentPad*%
%ADD16O,3.160000X4.200000*%
%TD*%
%TA.AperFunction,ComponentPad*%
%ADD17RoundRect,0.250000X0.845000X-0.620000X0.845000X0.620000X-0.845000X0.620000X-0.845000X-0.620000X0*%
%TD*%
%TA.AperFunction,ComponentPad*%
%ADD18O,2.190000X1.740000*%
%TD*%
%TA.AperFunction,ViaPad*%
%ADD19C,0.600000*%
%TD*%
%TA.AperFunction,Conductor*%
%ADD20C,0.200000*%
%TD*%
G04 APERTURE END LIST*
D10*
%TO.P,5V1,1,Pin_1*%
%TO.N,Net-(5V1-Pin_1)*%
X39500000Y-53000000D03*
D11*
%TO.P,5V1,2,Pin_2*%
%TO.N,Net-(5V1-Pin_2)*%
X42040000Y-53000000D03*
%TD*%
D12*
%TO.P,J3,*%
%TO.N,*%
X91920000Y-56980000D03*
X102080000Y-46820000D03*
D13*
%TO.P,J3,1,In*%
%TO.N,Net-(J3-In)*%
X97000000Y-51900000D03*
D14*
%TO.P,J3,2,Ext*%
%TO.N,Net-(5V1-Pin_2)*%
X99540000Y-51900000D03*
%TD*%
D15*
%TO.P,J1,1,Pin_1*%
%TO.N,Net-(5V1-Pin_2)*%
X155660000Y-62400000D03*
D16*
%TO.P,J1,2,Pin_2*%
%TO.N,Net-(J1-Pin_2)*%
X159620000Y-62400000D03*
%TO.P,J1,3,Pin_3*%
%TO.N,Net-(J1-Pin_3)*%
X163580000Y-62400000D03*
%TO.P,J1,4,Pin_4*%
%TO.N,Net-(J1-Pin_4)*%
X167540000Y-62400000D03*
%TO.P,J1,5,Pin_5*%
%TO.N,Net-(J1-Pin_5)*%
X171500000Y-62400000D03*
%TO.P,J1,6,Pin_6*%
%TO.N,Net-(J1-Pin_6)*%
X175460000Y-62400000D03*
%TD*%
D17*
%TO.P,U2,1,Pin_1*%
%TO.N,Net-(U1-VBAT_3V8)*%
X218500000Y-74020000D03*
D18*
%TO.P,U2,2,Pin_2*%
X218500000Y-71480000D03*
%TO.P,U2,3,Pin_3*%
%TO.N,Net-(U2-Pin_3)*%
X218500000Y-68940000D03*
%TO.P,U2,4,Pin_4*%
%TO.N,Net-(U2-Pin_4)*%
X218500000Y-66400000D03*
%TO.P,U2,5,Pin_5*%
%TO.N,Net-(U2-Pin_5)*%
X218500000Y-63860000D03*
%TO.P,U2,6,Pin_6*%
%TO.N,Net-(U2-Pin_6)*%
X218500000Y-61320000D03*
%TO.P,U2,7,Pin_7*%
%TO.N,Net-(J1-Pin_6)*%
X218500000Y-58780000D03*
%TO.P,U2,8,Pin_8*%
%TO.N,Net-(U2-Pin_8)*%
X218500000Y-56240000D03*
%TO.P,U2,9,Pin_9*%
%TO.N,Net-(U2-Pin_9)*%
X218500000Y-53700000D03*
%TO.P,U2,10,Pin_10*%
%TO.N,Net-(U2-Pin_10)*%
X218500000Y-51160000D03*
%TO.P,U2,11,Pin_11*%
%TO.N,Net-(J1-Pin_2)*%
X218500000Y-48620000D03*
%TO.P,U2,12,Pin_12*%
%TO.N,Net-(U2-Pin_12)*%
X218500000Y-46080000D03*
%TO.P,U2,13,Pin_13*%
%TO.N,Net-(U2-Pin_13)*%
X218500000Y-43540000D03*
%TO.P,U2,14,Pin_14*%
%TO.N,Net-(U2-Pin_14)*%
X218500000Y-41000000D03*
%TD*%
D10*
%TO.P,J2,1,Pin_1*%
%TO.N,Net-(J2-Pin_1)*%
X176960000Y-90160000D03*
D11*
%TO.P,J2,2,Pin_2*%
%TO.N,Net-(J2-Pin_2)*%
X179500000Y-90160000D03*
%TO.P,J2,3,Pin_3*%
%TO.N,Net-(J2-Pin_3)*%
X182040000Y-90160000D03*
%TO.P,J2,4,Pin_4*%
%TO.N,Net-(J2-Pin_4)*%
X184580000Y-90160000D03*
%TD*%
D19*
%TO.N,Net-(U2-Pin_12)*%
X212341200Y-71888100D03*
%TO.N,Net-(U2-Pin_13)*%
X211629900Y-70021700D03*
%TO.N,Net-(U2-Pin_3)*%
X194679900Y-79094400D03*
X194272700Y-70525500D03*
%TO.N,Net-(U2-Pin_4)*%
X215461900Y-79209700D03*
%TO.N,Net-(U2-Pin_10)*%
X215461900Y-40456200D03*
%TO.N,Net-(U2-Pin_9)*%
X216252500Y-73402700D03*
%TO.N,Net-(U2-Pin_8)*%
X197688700Y-87920200D03*
%TO.N,Net-(U1-FB)*%
X46616500Y-79630700D03*
X44555500Y-82987500D03*
%TO.N,Net-(J2-Pin_3)*%
X185024700Y-72507100D03*
%TO.N,Net-(J2-Pin_1)*%
X191764300Y-68297800D03*
%TO.N,Net-(J2-Pin_2)*%
X188802100Y-67522000D03*
%TO.N,Net-(J1-Pin_4)*%
X168066700Y-70499200D03*
%TO.N,Net-(J1-Pin_5)*%
X173991100Y-85016700D03*
%TO.N,Net-(J1-Pin_3)*%
X164630900Y-45351900D03*
%TO.N,Net-(U2-Pin_6)*%
X221693100Y-47271200D03*
%TO.N,Net-(U2-Pin_5)*%
X200650900Y-55077000D03*
X209537500Y-64692200D03*
%TO.N,Net-(J3-In)*%
X102898300Y-82113200D03*
%TO.N,Net-(J1-Pin_6)*%
X80642800Y-72000000D03*
X73276300Y-93727200D03*
%TO.N,Net-(5V1-Pin_2)*%
X94011700Y-77657700D03*
X58465300Y-77075000D03*
%TO.N,Net-(5V1-Pin_1)*%
X40617700Y-79209700D03*
%TD*%
D20*
%TO.N,Net-(U2-Pin_12)*%
X218500000Y-46080000D02*
X218500000Y-47251700D01*
X219085800Y-47251700D02*
X218500000Y-47251700D01*
X219966100Y-48132000D02*
X219085800Y-47251700D01*
X219966100Y-49078500D02*
X219966100Y-48132000D01*
X219252900Y-49791700D02*
X219966100Y-49078500D01*
X217909300Y-49791700D02*
X219252900Y-49791700D01*
X212341200Y-55359800D02*
X217909300Y-49791700D01*
X212341200Y-71888100D02*
X212341200Y-55359800D01*
%TO.N,Net-(U2-Pin_13)*%
X211629900Y-43360600D02*
X211629900Y-70021700D01*
X215137300Y-39853200D02*
X211629900Y-43360600D01*
X215767200Y-39853200D02*
X215137300Y-39853200D01*
X216252900Y-40338900D02*
X215767200Y-39853200D01*
X216252900Y-40696700D02*
X216252900Y-40338900D01*
X217924500Y-42368300D02*
X216252900Y-40696700D01*
X218500000Y-42368300D02*
X217924500Y-42368300D01*
X218500000Y-43540000D02*
X218500000Y-42368300D01*
%TO.N,Net-(U2-Pin_3)*%
X194679900Y-70932700D02*
X194272700Y-70525500D01*
X194679900Y-79094400D02*
X194679900Y-70932700D01*
%TO.N,Net-(U2-Pin_4)*%
X218500000Y-66400000D02*
X218500000Y-67571700D01*
X217914200Y-67571700D02*
X218500000Y-67571700D01*
X215461900Y-70024000D02*
X217914200Y-67571700D01*
X215461900Y-79209700D02*
X215461900Y-70024000D01*
%TO.N,Net-(U2-Pin_10)*%
X215461900Y-42384000D02*
X215461900Y-40456200D01*
X217985000Y-44907100D02*
X215461900Y-42384000D01*
X219218700Y-44907100D02*
X217985000Y-44907100D01*
X220418700Y-46107100D02*
X219218700Y-44907100D01*
X220418700Y-49241300D02*
X220418700Y-46107100D01*
X218500000Y-51160000D02*
X220418700Y-49241300D01*
%TO.N,Net-(U2-Pin_9)*%
X218500000Y-53700000D02*
X218500000Y-54871700D01*
X219085800Y-54871700D02*
X218500000Y-54871700D01*
X220298400Y-56084300D02*
X219085800Y-54871700D01*
X220298400Y-69077100D02*
X220298400Y-56084300D01*
X219263800Y-70111700D02*
X220298400Y-69077100D01*
X217983100Y-70111700D02*
X219263800Y-70111700D01*
X216252500Y-71842300D02*
X217983100Y-70111700D01*
X216252500Y-73402700D02*
X216252500Y-71842300D01*
%TO.N,Net-(U2-Pin_8)*%
X213045700Y-72563200D02*
X197688700Y-87920200D01*
X213045700Y-67358500D02*
X213045700Y-72563200D01*
X217814200Y-62590000D02*
X213045700Y-67358500D01*
X219112100Y-62590000D02*
X217814200Y-62590000D01*
X219896700Y-61805400D02*
X219112100Y-62590000D01*
X219896700Y-58294500D02*
X219896700Y-61805400D01*
X219013900Y-57411700D02*
X219896700Y-58294500D01*
X218500000Y-57411700D02*
X219013900Y-57411700D01*
X218500000Y-56240000D02*
X218500000Y-57411700D01*
%TO.N,Net-(U1-FB)*%
X46616500Y-80926500D02*
X44555500Y-82987500D01*
X46616500Y-79630700D02*
X46616500Y-80926500D01*
%TO.N,Net-(J2-Pin_3)*%
X183211700Y-74320100D02*
X183211700Y-90160000D01*
X185024700Y-72507100D02*
X183211700Y-74320100D01*
X185024700Y-72507100D02*
X188531800Y-69000000D01*
X188531800Y-69000000D02*
X185024700Y-72507100D01*
X182040000Y-90160000D02*
X183211700Y-90160000D01*
%TO.N,Net-(J2-Pin_2)*%
X179500000Y-76824100D02*
X188802100Y-67522000D01*
X179500000Y-90160000D02*
X179500000Y-76824100D01*
%TO.N,Net-(J1-Pin_4)*%
X167540000Y-69972500D02*
X168066700Y-70499200D01*
X167540000Y-62400000D02*
X167540000Y-69972500D01*
%TO.N,Net-(J1-Pin_5)*%
X171500000Y-82525600D02*
X171500000Y-62400000D01*
X173991100Y-85016700D02*
X171500000Y-82525600D01*
%TO.N,Net-(J1-Pin_3)*%
X163580000Y-46402800D02*
X164630900Y-45351900D01*
X163580000Y-62400000D02*
X163580000Y-46402800D01*
%TO.N,Net-(U2-Pin_6)*%
X217967000Y-60148300D02*
X218500000Y-60148300D01*
X217054900Y-59236200D02*
X217967000Y-60148300D01*
X217054900Y-53214300D02*
X217054900Y-59236200D01*
X217937500Y-52331700D02*
X217054900Y-53214300D01*
X219247100Y-52331700D02*
X217937500Y-52331700D01*
X221693100Y-49885700D02*
X219247100Y-52331700D01*
X221693100Y-47271200D02*
X221693100Y-49885700D01*
X218500000Y-61320000D02*
X218500000Y-60148300D01*
%TO.N,Net-(U2-Pin_5)*%
X209537500Y-63963600D02*
X209537500Y-64692200D01*
X200650900Y-55077000D02*
X209537500Y-63963600D01*
%TO.N,Net-(J3-In)*%
X102898300Y-57798300D02*
X97000000Y-51900000D01*
X102898300Y-82113200D02*
X102898300Y-57798300D01*
%TO.N,Net-(J1-Pin_6)*%
X73276300Y-79366500D02*
X73276300Y-93727200D01*
X80642800Y-72000000D02*
X73276300Y-79366500D01*
%TO.N,Net-(U1-VBAT_3V8)*%
X218500000Y-71480000D02*
X218500000Y-74020000D01*
%TO.N,Net-(5V1-Pin_2)*%
X42040000Y-60649700D02*
X42040000Y-53000000D01*
X58465300Y-77075000D02*
X42040000Y-60649700D01*
X98431700Y-50791700D02*
X99540000Y-51900000D01*
X96278600Y-50791700D02*
X98431700Y-50791700D01*
X95844000Y-51226300D02*
X96278600Y-50791700D01*
X95844000Y-75825400D02*
X95844000Y-51226300D01*
X94011700Y-77657700D02*
X95844000Y-75825400D01*
%TO.N,Net-(5V1-Pin_1)*%
X39500000Y-78092000D02*
X40617700Y-79209700D01*
X39500000Y-53000000D02*
X39500000Y-78092000D01*
%TD*%
M02*
