%TF.GenerationSoftware,KiCad,Pcbnew,9.0.6*%
%TF.CreationDate,2025-12-25T12:15:46+05:30*%
%TF.ProjectId,LIMELIGHT_assignment,4c494d45-4c49-4474-9854-5f6173736967,rev?*%
%TF.SameCoordinates,Original*%
%TF.FileFunction,Legend,Top*%
%TF.FilePolarity,Positive*%
%FSLAX46Y46*%
G04 Gerber Fmt 4.6, Leading zero omitted, Abs format (unit mm)*
G04 Created by KiCad (PCBNEW 9.0.6) date 2025-12-25 12:15:46*
%MOMM*%
%LPD*%
G01*
G04 APERTURE LIST*
%ADD10C,0.100000*%
%ADD11C,0.150000*%
%ADD12C,0.120000*%
G04 APERTURE END LIST*
D10*
X41661027Y-37318609D02*
X41184836Y-37794800D01*
X41184836Y-37794800D02*
X39756265Y-38270990D01*
X39756265Y-38270990D02*
X38803884Y-38270990D01*
X38803884Y-38270990D02*
X37375312Y-37794800D01*
X37375312Y-37794800D02*
X36422931Y-36842419D01*
X36422931Y-36842419D02*
X35946741Y-35890038D01*
X35946741Y-35890038D02*
X35470550Y-33985276D01*
X35470550Y-33985276D02*
X35470550Y-32556704D01*
X35470550Y-32556704D02*
X35946741Y-30651942D01*
X35946741Y-30651942D02*
X36422931Y-29699561D01*
X36422931Y-29699561D02*
X37375312Y-28747180D01*
X37375312Y-28747180D02*
X38803884Y-28270990D01*
X38803884Y-28270990D02*
X39756265Y-28270990D01*
X39756265Y-28270990D02*
X41184836Y-28747180D01*
X41184836Y-28747180D02*
X41661027Y-29223371D01*
X51184836Y-38270990D02*
X45470550Y-38270990D01*
X48327693Y-38270990D02*
X48327693Y-28270990D01*
X48327693Y-28270990D02*
X47375312Y-29699561D01*
X47375312Y-29699561D02*
X46422931Y-30651942D01*
X46422931Y-30651942D02*
X45470550Y-31128133D01*
X59756265Y-28270990D02*
X57851503Y-28270990D01*
X57851503Y-28270990D02*
X56899122Y-28747180D01*
X56899122Y-28747180D02*
X56422932Y-29223371D01*
X56422932Y-29223371D02*
X55470551Y-30651942D01*
X55470551Y-30651942D02*
X54994360Y-32556704D01*
X54994360Y-32556704D02*
X54994360Y-36366228D01*
X54994360Y-36366228D02*
X55470551Y-37318609D01*
X55470551Y-37318609D02*
X55946741Y-37794800D01*
X55946741Y-37794800D02*
X56899122Y-38270990D01*
X56899122Y-38270990D02*
X58803884Y-38270990D01*
X58803884Y-38270990D02*
X59756265Y-37794800D01*
X59756265Y-37794800D02*
X60232456Y-37318609D01*
X60232456Y-37318609D02*
X60708646Y-36366228D01*
X60708646Y-36366228D02*
X60708646Y-33985276D01*
X60708646Y-33985276D02*
X60232456Y-33032895D01*
X60232456Y-33032895D02*
X59756265Y-32556704D01*
X59756265Y-32556704D02*
X58803884Y-32080514D01*
X58803884Y-32080514D02*
X56899122Y-32080514D01*
X56899122Y-32080514D02*
X55946741Y-32556704D01*
X55946741Y-32556704D02*
X55470551Y-33032895D01*
X55470551Y-33032895D02*
X54994360Y-33985276D01*
X71661028Y-39223371D02*
X70708647Y-38747180D01*
X70708647Y-38747180D02*
X69756266Y-37794800D01*
X69756266Y-37794800D02*
X68327694Y-36366228D01*
X68327694Y-36366228D02*
X67375313Y-35890038D01*
X67375313Y-35890038D02*
X66422932Y-35890038D01*
X66899123Y-38270990D02*
X65946742Y-37794800D01*
X65946742Y-37794800D02*
X64994361Y-36842419D01*
X64994361Y-36842419D02*
X64518170Y-34937657D01*
X64518170Y-34937657D02*
X64518170Y-31604323D01*
X64518170Y-31604323D02*
X64994361Y-29699561D01*
X64994361Y-29699561D02*
X65946742Y-28747180D01*
X65946742Y-28747180D02*
X66899123Y-28270990D01*
X66899123Y-28270990D02*
X68803885Y-28270990D01*
X68803885Y-28270990D02*
X69756266Y-28747180D01*
X69756266Y-28747180D02*
X70708647Y-29699561D01*
X70708647Y-29699561D02*
X71184837Y-31604323D01*
X71184837Y-31604323D02*
X71184837Y-34937657D01*
X71184837Y-34937657D02*
X70708647Y-36842419D01*
X70708647Y-36842419D02*
X69756266Y-37794800D01*
X69756266Y-37794800D02*
X68803885Y-38270990D01*
X68803885Y-38270990D02*
X66899123Y-38270990D01*
X74994360Y-37794800D02*
X76422932Y-38270990D01*
X76422932Y-38270990D02*
X78803884Y-38270990D01*
X78803884Y-38270990D02*
X79756265Y-37794800D01*
X79756265Y-37794800D02*
X80232456Y-37318609D01*
X80232456Y-37318609D02*
X80708646Y-36366228D01*
X80708646Y-36366228D02*
X80708646Y-35413847D01*
X80708646Y-35413847D02*
X80232456Y-34461466D01*
X80232456Y-34461466D02*
X79756265Y-33985276D01*
X79756265Y-33985276D02*
X78803884Y-33509085D01*
X78803884Y-33509085D02*
X76899122Y-33032895D01*
X76899122Y-33032895D02*
X75946741Y-32556704D01*
X75946741Y-32556704D02*
X75470551Y-32080514D01*
X75470551Y-32080514D02*
X74994360Y-31128133D01*
X74994360Y-31128133D02*
X74994360Y-30175752D01*
X74994360Y-30175752D02*
X75470551Y-29223371D01*
X75470551Y-29223371D02*
X75946741Y-28747180D01*
X75946741Y-28747180D02*
X76899122Y-28270990D01*
X76899122Y-28270990D02*
X79280075Y-28270990D01*
X79280075Y-28270990D02*
X80708646Y-28747180D01*
X82613409Y-39223371D02*
X90232456Y-39223371D01*
X92137218Y-35413847D02*
X96899123Y-35413847D01*
X91184837Y-38270990D02*
X94518171Y-28270990D01*
X94518171Y-28270990D02*
X97851504Y-38270990D01*
X100232457Y-28270990D02*
X102613409Y-38270990D01*
X102613409Y-38270990D02*
X104518171Y-31128133D01*
X104518171Y-31128133D02*
X106422933Y-38270990D01*
X106422933Y-38270990D02*
X108803886Y-28270990D01*
X112137218Y-35413847D02*
X116899123Y-35413847D01*
X111184837Y-38270990D02*
X114518171Y-28270990D01*
X114518171Y-28270990D02*
X117851504Y-38270990D01*
X121184838Y-38270990D02*
X121184838Y-28270990D01*
X125470552Y-37794800D02*
X126899124Y-38270990D01*
X126899124Y-38270990D02*
X129280076Y-38270990D01*
X129280076Y-38270990D02*
X130232457Y-37794800D01*
X130232457Y-37794800D02*
X130708648Y-37318609D01*
X130708648Y-37318609D02*
X131184838Y-36366228D01*
X131184838Y-36366228D02*
X131184838Y-35413847D01*
X131184838Y-35413847D02*
X130708648Y-34461466D01*
X130708648Y-34461466D02*
X130232457Y-33985276D01*
X130232457Y-33985276D02*
X129280076Y-33509085D01*
X129280076Y-33509085D02*
X127375314Y-33032895D01*
X127375314Y-33032895D02*
X126422933Y-32556704D01*
X126422933Y-32556704D02*
X125946743Y-32080514D01*
X125946743Y-32080514D02*
X125470552Y-31128133D01*
X125470552Y-31128133D02*
X125470552Y-30175752D01*
X125470552Y-30175752D02*
X125946743Y-29223371D01*
X125946743Y-29223371D02*
X126422933Y-28747180D01*
X126422933Y-28747180D02*
X127375314Y-28270990D01*
X127375314Y-28270990D02*
X129756267Y-28270990D01*
X129756267Y-28270990D02*
X131184838Y-28747180D01*
X133089601Y-39223371D02*
X140708648Y-39223371D01*
X141661029Y-28270990D02*
X144994363Y-38270990D01*
X144994363Y-38270990D02*
X148327696Y-28270990D01*
X156899125Y-38270990D02*
X151184839Y-38270990D01*
X154041982Y-38270990D02*
X154041982Y-28270990D01*
X154041982Y-28270990D02*
X153089601Y-29699561D01*
X153089601Y-29699561D02*
X152137220Y-30651942D01*
X152137220Y-30651942D02*
X151184839Y-31128133D01*
D11*
X148168333Y-58809580D02*
X148120714Y-58857200D01*
X148120714Y-58857200D02*
X147977857Y-58904819D01*
X147977857Y-58904819D02*
X147882619Y-58904819D01*
X147882619Y-58904819D02*
X147739762Y-58857200D01*
X147739762Y-58857200D02*
X147644524Y-58761961D01*
X147644524Y-58761961D02*
X147596905Y-58666723D01*
X147596905Y-58666723D02*
X147549286Y-58476247D01*
X147549286Y-58476247D02*
X147549286Y-58333390D01*
X147549286Y-58333390D02*
X147596905Y-58142914D01*
X147596905Y-58142914D02*
X147644524Y-58047676D01*
X147644524Y-58047676D02*
X147739762Y-57952438D01*
X147739762Y-57952438D02*
X147882619Y-57904819D01*
X147882619Y-57904819D02*
X147977857Y-57904819D01*
X147977857Y-57904819D02*
X148120714Y-57952438D01*
X148120714Y-57952438D02*
X148168333Y-58000057D01*
X148501667Y-57904819D02*
X149120714Y-57904819D01*
X149120714Y-57904819D02*
X148787381Y-58285771D01*
X148787381Y-58285771D02*
X148930238Y-58285771D01*
X148930238Y-58285771D02*
X149025476Y-58333390D01*
X149025476Y-58333390D02*
X149073095Y-58381009D01*
X149073095Y-58381009D02*
X149120714Y-58476247D01*
X149120714Y-58476247D02*
X149120714Y-58714342D01*
X149120714Y-58714342D02*
X149073095Y-58809580D01*
X149073095Y-58809580D02*
X149025476Y-58857200D01*
X149025476Y-58857200D02*
X148930238Y-58904819D01*
X148930238Y-58904819D02*
X148644524Y-58904819D01*
X148644524Y-58904819D02*
X148549286Y-58857200D01*
X148549286Y-58857200D02*
X148501667Y-58809580D01*
X109178809Y-51309580D02*
X109131190Y-51357200D01*
X109131190Y-51357200D02*
X108988333Y-51404819D01*
X108988333Y-51404819D02*
X108893095Y-51404819D01*
X108893095Y-51404819D02*
X108750238Y-51357200D01*
X108750238Y-51357200D02*
X108655000Y-51261961D01*
X108655000Y-51261961D02*
X108607381Y-51166723D01*
X108607381Y-51166723D02*
X108559762Y-50976247D01*
X108559762Y-50976247D02*
X108559762Y-50833390D01*
X108559762Y-50833390D02*
X108607381Y-50642914D01*
X108607381Y-50642914D02*
X108655000Y-50547676D01*
X108655000Y-50547676D02*
X108750238Y-50452438D01*
X108750238Y-50452438D02*
X108893095Y-50404819D01*
X108893095Y-50404819D02*
X108988333Y-50404819D01*
X108988333Y-50404819D02*
X109131190Y-50452438D01*
X109131190Y-50452438D02*
X109178809Y-50500057D01*
X109369286Y-51500057D02*
X110131190Y-51500057D01*
X110940714Y-51404819D02*
X110607381Y-50928628D01*
X110369286Y-51404819D02*
X110369286Y-50404819D01*
X110369286Y-50404819D02*
X110750238Y-50404819D01*
X110750238Y-50404819D02*
X110845476Y-50452438D01*
X110845476Y-50452438D02*
X110893095Y-50500057D01*
X110893095Y-50500057D02*
X110940714Y-50595295D01*
X110940714Y-50595295D02*
X110940714Y-50738152D01*
X110940714Y-50738152D02*
X110893095Y-50833390D01*
X110893095Y-50833390D02*
X110845476Y-50881009D01*
X110845476Y-50881009D02*
X110750238Y-50928628D01*
X110750238Y-50928628D02*
X110369286Y-50928628D01*
X111702619Y-50881009D02*
X111369286Y-50881009D01*
X111369286Y-51404819D02*
X111369286Y-50404819D01*
X111369286Y-50404819D02*
X111845476Y-50404819D01*
X112178810Y-50500057D02*
X112226429Y-50452438D01*
X112226429Y-50452438D02*
X112321667Y-50404819D01*
X112321667Y-50404819D02*
X112559762Y-50404819D01*
X112559762Y-50404819D02*
X112655000Y-50452438D01*
X112655000Y-50452438D02*
X112702619Y-50500057D01*
X112702619Y-50500057D02*
X112750238Y-50595295D01*
X112750238Y-50595295D02*
X112750238Y-50690533D01*
X112750238Y-50690533D02*
X112702619Y-50833390D01*
X112702619Y-50833390D02*
X112131191Y-51404819D01*
X112131191Y-51404819D02*
X112750238Y-51404819D01*
X40103333Y-48334819D02*
X39627143Y-48334819D01*
X39627143Y-48334819D02*
X39579524Y-48811009D01*
X39579524Y-48811009D02*
X39627143Y-48763390D01*
X39627143Y-48763390D02*
X39722381Y-48715771D01*
X39722381Y-48715771D02*
X39960476Y-48715771D01*
X39960476Y-48715771D02*
X40055714Y-48763390D01*
X40055714Y-48763390D02*
X40103333Y-48811009D01*
X40103333Y-48811009D02*
X40150952Y-48906247D01*
X40150952Y-48906247D02*
X40150952Y-49144342D01*
X40150952Y-49144342D02*
X40103333Y-49239580D01*
X40103333Y-49239580D02*
X40055714Y-49287200D01*
X40055714Y-49287200D02*
X39960476Y-49334819D01*
X39960476Y-49334819D02*
X39722381Y-49334819D01*
X39722381Y-49334819D02*
X39627143Y-49287200D01*
X39627143Y-49287200D02*
X39579524Y-49239580D01*
X40436667Y-48334819D02*
X40770000Y-49334819D01*
X40770000Y-49334819D02*
X41103333Y-48334819D01*
X41960476Y-49334819D02*
X41389048Y-49334819D01*
X41674762Y-49334819D02*
X41674762Y-48334819D01*
X41674762Y-48334819D02*
X41579524Y-48477676D01*
X41579524Y-48477676D02*
X41484286Y-48572914D01*
X41484286Y-48572914D02*
X41389048Y-48620533D01*
X182658333Y-71454819D02*
X182325000Y-70978628D01*
X182086905Y-71454819D02*
X182086905Y-70454819D01*
X182086905Y-70454819D02*
X182467857Y-70454819D01*
X182467857Y-70454819D02*
X182563095Y-70502438D01*
X182563095Y-70502438D02*
X182610714Y-70550057D01*
X182610714Y-70550057D02*
X182658333Y-70645295D01*
X182658333Y-70645295D02*
X182658333Y-70788152D01*
X182658333Y-70788152D02*
X182610714Y-70883390D01*
X182610714Y-70883390D02*
X182563095Y-70931009D01*
X182563095Y-70931009D02*
X182467857Y-70978628D01*
X182467857Y-70978628D02*
X182086905Y-70978628D01*
X183515476Y-70788152D02*
X183515476Y-71454819D01*
X183277381Y-70407200D02*
X183039286Y-71121485D01*
X183039286Y-71121485D02*
X183658333Y-71121485D01*
X164508333Y-43464819D02*
X164175000Y-42988628D01*
X163936905Y-43464819D02*
X163936905Y-42464819D01*
X163936905Y-42464819D02*
X164317857Y-42464819D01*
X164317857Y-42464819D02*
X164413095Y-42512438D01*
X164413095Y-42512438D02*
X164460714Y-42560057D01*
X164460714Y-42560057D02*
X164508333Y-42655295D01*
X164508333Y-42655295D02*
X164508333Y-42798152D01*
X164508333Y-42798152D02*
X164460714Y-42893390D01*
X164460714Y-42893390D02*
X164413095Y-42941009D01*
X164413095Y-42941009D02*
X164317857Y-42988628D01*
X164317857Y-42988628D02*
X163936905Y-42988628D01*
X165413095Y-42464819D02*
X164936905Y-42464819D01*
X164936905Y-42464819D02*
X164889286Y-42941009D01*
X164889286Y-42941009D02*
X164936905Y-42893390D01*
X164936905Y-42893390D02*
X165032143Y-42845771D01*
X165032143Y-42845771D02*
X165270238Y-42845771D01*
X165270238Y-42845771D02*
X165365476Y-42893390D01*
X165365476Y-42893390D02*
X165413095Y-42941009D01*
X165413095Y-42941009D02*
X165460714Y-43036247D01*
X165460714Y-43036247D02*
X165460714Y-43274342D01*
X165460714Y-43274342D02*
X165413095Y-43369580D01*
X165413095Y-43369580D02*
X165365476Y-43417200D01*
X165365476Y-43417200D02*
X165270238Y-43464819D01*
X165270238Y-43464819D02*
X165032143Y-43464819D01*
X165032143Y-43464819D02*
X164936905Y-43417200D01*
X164936905Y-43417200D02*
X164889286Y-43369580D01*
X96666666Y-60604819D02*
X96666666Y-61319104D01*
X96666666Y-61319104D02*
X96619047Y-61461961D01*
X96619047Y-61461961D02*
X96523809Y-61557200D01*
X96523809Y-61557200D02*
X96380952Y-61604819D01*
X96380952Y-61604819D02*
X96285714Y-61604819D01*
X97047619Y-60604819D02*
X97666666Y-60604819D01*
X97666666Y-60604819D02*
X97333333Y-60985771D01*
X97333333Y-60985771D02*
X97476190Y-60985771D01*
X97476190Y-60985771D02*
X97571428Y-61033390D01*
X97571428Y-61033390D02*
X97619047Y-61081009D01*
X97619047Y-61081009D02*
X97666666Y-61176247D01*
X97666666Y-61176247D02*
X97666666Y-61414342D01*
X97666666Y-61414342D02*
X97619047Y-61509580D01*
X97619047Y-61509580D02*
X97571428Y-61557200D01*
X97571428Y-61557200D02*
X97476190Y-61604819D01*
X97476190Y-61604819D02*
X97190476Y-61604819D01*
X97190476Y-61604819D02*
X97095238Y-61557200D01*
X97095238Y-61557200D02*
X97047619Y-61509580D01*
X200508333Y-87084819D02*
X200175000Y-86608628D01*
X199936905Y-87084819D02*
X199936905Y-86084819D01*
X199936905Y-86084819D02*
X200317857Y-86084819D01*
X200317857Y-86084819D02*
X200413095Y-86132438D01*
X200413095Y-86132438D02*
X200460714Y-86180057D01*
X200460714Y-86180057D02*
X200508333Y-86275295D01*
X200508333Y-86275295D02*
X200508333Y-86418152D01*
X200508333Y-86418152D02*
X200460714Y-86513390D01*
X200460714Y-86513390D02*
X200413095Y-86561009D01*
X200413095Y-86561009D02*
X200317857Y-86608628D01*
X200317857Y-86608628D02*
X199936905Y-86608628D01*
X200841667Y-86084819D02*
X201460714Y-86084819D01*
X201460714Y-86084819D02*
X201127381Y-86465771D01*
X201127381Y-86465771D02*
X201270238Y-86465771D01*
X201270238Y-86465771D02*
X201365476Y-86513390D01*
X201365476Y-86513390D02*
X201413095Y-86561009D01*
X201413095Y-86561009D02*
X201460714Y-86656247D01*
X201460714Y-86656247D02*
X201460714Y-86894342D01*
X201460714Y-86894342D02*
X201413095Y-86989580D01*
X201413095Y-86989580D02*
X201365476Y-87037200D01*
X201365476Y-87037200D02*
X201270238Y-87084819D01*
X201270238Y-87084819D02*
X200984524Y-87084819D01*
X200984524Y-87084819D02*
X200889286Y-87037200D01*
X200889286Y-87037200D02*
X200841667Y-86989580D01*
X146833333Y-63359580D02*
X146785714Y-63407200D01*
X146785714Y-63407200D02*
X146642857Y-63454819D01*
X146642857Y-63454819D02*
X146547619Y-63454819D01*
X146547619Y-63454819D02*
X146404762Y-63407200D01*
X146404762Y-63407200D02*
X146309524Y-63311961D01*
X146309524Y-63311961D02*
X146261905Y-63216723D01*
X146261905Y-63216723D02*
X146214286Y-63026247D01*
X146214286Y-63026247D02*
X146214286Y-62883390D01*
X146214286Y-62883390D02*
X146261905Y-62692914D01*
X146261905Y-62692914D02*
X146309524Y-62597676D01*
X146309524Y-62597676D02*
X146404762Y-62502438D01*
X146404762Y-62502438D02*
X146547619Y-62454819D01*
X146547619Y-62454819D02*
X146642857Y-62454819D01*
X146642857Y-62454819D02*
X146785714Y-62502438D01*
X146785714Y-62502438D02*
X146833333Y-62550057D01*
X147690476Y-62788152D02*
X147690476Y-63454819D01*
X147452381Y-62407200D02*
X147214286Y-63121485D01*
X147214286Y-63121485D02*
X147833333Y-63121485D01*
X136023809Y-80504819D02*
X135547619Y-80504819D01*
X135547619Y-80504819D02*
X135547619Y-79504819D01*
X136119048Y-80600057D02*
X136880952Y-80600057D01*
X137690476Y-80504819D02*
X137357143Y-80028628D01*
X137119048Y-80504819D02*
X137119048Y-79504819D01*
X137119048Y-79504819D02*
X137500000Y-79504819D01*
X137500000Y-79504819D02*
X137595238Y-79552438D01*
X137595238Y-79552438D02*
X137642857Y-79600057D01*
X137642857Y-79600057D02*
X137690476Y-79695295D01*
X137690476Y-79695295D02*
X137690476Y-79838152D01*
X137690476Y-79838152D02*
X137642857Y-79933390D01*
X137642857Y-79933390D02*
X137595238Y-79981009D01*
X137595238Y-79981009D02*
X137500000Y-80028628D01*
X137500000Y-80028628D02*
X137119048Y-80028628D01*
X138452381Y-79981009D02*
X138119048Y-79981009D01*
X138119048Y-80504819D02*
X138119048Y-79504819D01*
X138119048Y-79504819D02*
X138595238Y-79504819D01*
X139500000Y-80504819D02*
X138928572Y-80504819D01*
X139214286Y-80504819D02*
X139214286Y-79504819D01*
X139214286Y-79504819D02*
X139119048Y-79647676D01*
X139119048Y-79647676D02*
X139023810Y-79742914D01*
X139023810Y-79742914D02*
X138928572Y-79790533D01*
X165226666Y-55054819D02*
X165226666Y-55769104D01*
X165226666Y-55769104D02*
X165179047Y-55911961D01*
X165179047Y-55911961D02*
X165083809Y-56007200D01*
X165083809Y-56007200D02*
X164940952Y-56054819D01*
X164940952Y-56054819D02*
X164845714Y-56054819D01*
X166226666Y-56054819D02*
X165655238Y-56054819D01*
X165940952Y-56054819D02*
X165940952Y-55054819D01*
X165940952Y-55054819D02*
X165845714Y-55197676D01*
X165845714Y-55197676D02*
X165750476Y-55292914D01*
X165750476Y-55292914D02*
X165655238Y-55340533D01*
X39763095Y-76459819D02*
X39763095Y-77269342D01*
X39763095Y-77269342D02*
X39810714Y-77364580D01*
X39810714Y-77364580D02*
X39858333Y-77412200D01*
X39858333Y-77412200D02*
X39953571Y-77459819D01*
X39953571Y-77459819D02*
X40144047Y-77459819D01*
X40144047Y-77459819D02*
X40239285Y-77412200D01*
X40239285Y-77412200D02*
X40286904Y-77364580D01*
X40286904Y-77364580D02*
X40334523Y-77269342D01*
X40334523Y-77269342D02*
X40334523Y-76459819D01*
X41334523Y-77459819D02*
X40763095Y-77459819D01*
X41048809Y-77459819D02*
X41048809Y-76459819D01*
X41048809Y-76459819D02*
X40953571Y-76602676D01*
X40953571Y-76602676D02*
X40858333Y-76697914D01*
X40858333Y-76697914D02*
X40763095Y-76745533D01*
X55683333Y-76454819D02*
X55350000Y-75978628D01*
X55111905Y-76454819D02*
X55111905Y-75454819D01*
X55111905Y-75454819D02*
X55492857Y-75454819D01*
X55492857Y-75454819D02*
X55588095Y-75502438D01*
X55588095Y-75502438D02*
X55635714Y-75550057D01*
X55635714Y-75550057D02*
X55683333Y-75645295D01*
X55683333Y-75645295D02*
X55683333Y-75788152D01*
X55683333Y-75788152D02*
X55635714Y-75883390D01*
X55635714Y-75883390D02*
X55588095Y-75931009D01*
X55588095Y-75931009D02*
X55492857Y-75978628D01*
X55492857Y-75978628D02*
X55111905Y-75978628D01*
X56635714Y-76454819D02*
X56064286Y-76454819D01*
X56350000Y-76454819D02*
X56350000Y-75454819D01*
X56350000Y-75454819D02*
X56254762Y-75597676D01*
X56254762Y-75597676D02*
X56159524Y-75692914D01*
X56159524Y-75692914D02*
X56064286Y-75740533D01*
X82178333Y-77809580D02*
X82130714Y-77857200D01*
X82130714Y-77857200D02*
X81987857Y-77904819D01*
X81987857Y-77904819D02*
X81892619Y-77904819D01*
X81892619Y-77904819D02*
X81749762Y-77857200D01*
X81749762Y-77857200D02*
X81654524Y-77761961D01*
X81654524Y-77761961D02*
X81606905Y-77666723D01*
X81606905Y-77666723D02*
X81559286Y-77476247D01*
X81559286Y-77476247D02*
X81559286Y-77333390D01*
X81559286Y-77333390D02*
X81606905Y-77142914D01*
X81606905Y-77142914D02*
X81654524Y-77047676D01*
X81654524Y-77047676D02*
X81749762Y-76952438D01*
X81749762Y-76952438D02*
X81892619Y-76904819D01*
X81892619Y-76904819D02*
X81987857Y-76904819D01*
X81987857Y-76904819D02*
X82130714Y-76952438D01*
X82130714Y-76952438D02*
X82178333Y-77000057D01*
X82559286Y-77000057D02*
X82606905Y-76952438D01*
X82606905Y-76952438D02*
X82702143Y-76904819D01*
X82702143Y-76904819D02*
X82940238Y-76904819D01*
X82940238Y-76904819D02*
X83035476Y-76952438D01*
X83035476Y-76952438D02*
X83083095Y-77000057D01*
X83083095Y-77000057D02*
X83130714Y-77095295D01*
X83130714Y-77095295D02*
X83130714Y-77190533D01*
X83130714Y-77190533D02*
X83083095Y-77333390D01*
X83083095Y-77333390D02*
X82511667Y-77904819D01*
X82511667Y-77904819D02*
X83130714Y-77904819D01*
X179203809Y-47309580D02*
X179156190Y-47357200D01*
X179156190Y-47357200D02*
X179013333Y-47404819D01*
X179013333Y-47404819D02*
X178918095Y-47404819D01*
X178918095Y-47404819D02*
X178775238Y-47357200D01*
X178775238Y-47357200D02*
X178680000Y-47261961D01*
X178680000Y-47261961D02*
X178632381Y-47166723D01*
X178632381Y-47166723D02*
X178584762Y-46976247D01*
X178584762Y-46976247D02*
X178584762Y-46833390D01*
X178584762Y-46833390D02*
X178632381Y-46642914D01*
X178632381Y-46642914D02*
X178680000Y-46547676D01*
X178680000Y-46547676D02*
X178775238Y-46452438D01*
X178775238Y-46452438D02*
X178918095Y-46404819D01*
X178918095Y-46404819D02*
X179013333Y-46404819D01*
X179013333Y-46404819D02*
X179156190Y-46452438D01*
X179156190Y-46452438D02*
X179203809Y-46500057D01*
X179394286Y-47500057D02*
X180156190Y-47500057D01*
X180965714Y-47404819D02*
X180632381Y-46928628D01*
X180394286Y-47404819D02*
X180394286Y-46404819D01*
X180394286Y-46404819D02*
X180775238Y-46404819D01*
X180775238Y-46404819D02*
X180870476Y-46452438D01*
X180870476Y-46452438D02*
X180918095Y-46500057D01*
X180918095Y-46500057D02*
X180965714Y-46595295D01*
X180965714Y-46595295D02*
X180965714Y-46738152D01*
X180965714Y-46738152D02*
X180918095Y-46833390D01*
X180918095Y-46833390D02*
X180870476Y-46881009D01*
X180870476Y-46881009D02*
X180775238Y-46928628D01*
X180775238Y-46928628D02*
X180394286Y-46928628D01*
X181727619Y-46881009D02*
X181394286Y-46881009D01*
X181394286Y-47404819D02*
X181394286Y-46404819D01*
X181394286Y-46404819D02*
X181870476Y-46404819D01*
X182775238Y-47404819D02*
X182203810Y-47404819D01*
X182489524Y-47404819D02*
X182489524Y-46404819D01*
X182489524Y-46404819D02*
X182394286Y-46547676D01*
X182394286Y-46547676D02*
X182299048Y-46642914D01*
X182299048Y-46642914D02*
X182203810Y-46690533D01*
X63333333Y-76809580D02*
X63285714Y-76857200D01*
X63285714Y-76857200D02*
X63142857Y-76904819D01*
X63142857Y-76904819D02*
X63047619Y-76904819D01*
X63047619Y-76904819D02*
X62904762Y-76857200D01*
X62904762Y-76857200D02*
X62809524Y-76761961D01*
X62809524Y-76761961D02*
X62761905Y-76666723D01*
X62761905Y-76666723D02*
X62714286Y-76476247D01*
X62714286Y-76476247D02*
X62714286Y-76333390D01*
X62714286Y-76333390D02*
X62761905Y-76142914D01*
X62761905Y-76142914D02*
X62809524Y-76047676D01*
X62809524Y-76047676D02*
X62904762Y-75952438D01*
X62904762Y-75952438D02*
X63047619Y-75904819D01*
X63047619Y-75904819D02*
X63142857Y-75904819D01*
X63142857Y-75904819D02*
X63285714Y-75952438D01*
X63285714Y-75952438D02*
X63333333Y-76000057D01*
X64285714Y-76904819D02*
X63714286Y-76904819D01*
X64000000Y-76904819D02*
X64000000Y-75904819D01*
X64000000Y-75904819D02*
X63904762Y-76047676D01*
X63904762Y-76047676D02*
X63809524Y-76142914D01*
X63809524Y-76142914D02*
X63714286Y-76190533D01*
X192555952Y-80024819D02*
X192222619Y-79548628D01*
X191984524Y-80024819D02*
X191984524Y-79024819D01*
X191984524Y-79024819D02*
X192365476Y-79024819D01*
X192365476Y-79024819D02*
X192460714Y-79072438D01*
X192460714Y-79072438D02*
X192508333Y-79120057D01*
X192508333Y-79120057D02*
X192555952Y-79215295D01*
X192555952Y-79215295D02*
X192555952Y-79358152D01*
X192555952Y-79358152D02*
X192508333Y-79453390D01*
X192508333Y-79453390D02*
X192460714Y-79501009D01*
X192460714Y-79501009D02*
X192365476Y-79548628D01*
X192365476Y-79548628D02*
X191984524Y-79548628D01*
X192746429Y-80120057D02*
X193508333Y-80120057D01*
X193746429Y-80024819D02*
X193746429Y-79024819D01*
X193746429Y-79024819D02*
X194127381Y-79024819D01*
X194127381Y-79024819D02*
X194222619Y-79072438D01*
X194222619Y-79072438D02*
X194270238Y-79120057D01*
X194270238Y-79120057D02*
X194317857Y-79215295D01*
X194317857Y-79215295D02*
X194317857Y-79358152D01*
X194317857Y-79358152D02*
X194270238Y-79453390D01*
X194270238Y-79453390D02*
X194222619Y-79501009D01*
X194222619Y-79501009D02*
X194127381Y-79548628D01*
X194127381Y-79548628D02*
X193746429Y-79548628D01*
X194651191Y-79024819D02*
X194889286Y-80024819D01*
X194889286Y-80024819D02*
X195079762Y-79310533D01*
X195079762Y-79310533D02*
X195270238Y-80024819D01*
X195270238Y-80024819D02*
X195508334Y-79024819D01*
X196460714Y-80024819D02*
X196127381Y-79548628D01*
X195889286Y-80024819D02*
X195889286Y-79024819D01*
X195889286Y-79024819D02*
X196270238Y-79024819D01*
X196270238Y-79024819D02*
X196365476Y-79072438D01*
X196365476Y-79072438D02*
X196413095Y-79120057D01*
X196413095Y-79120057D02*
X196460714Y-79215295D01*
X196460714Y-79215295D02*
X196460714Y-79358152D01*
X196460714Y-79358152D02*
X196413095Y-79453390D01*
X196413095Y-79453390D02*
X196365476Y-79501009D01*
X196365476Y-79501009D02*
X196270238Y-79548628D01*
X196270238Y-79548628D02*
X195889286Y-79548628D01*
X197413095Y-80024819D02*
X196841667Y-80024819D01*
X197127381Y-80024819D02*
X197127381Y-79024819D01*
X197127381Y-79024819D02*
X197032143Y-79167676D01*
X197032143Y-79167676D02*
X196936905Y-79262914D01*
X196936905Y-79262914D02*
X196841667Y-79310533D01*
X192250237Y-47309580D02*
X192202618Y-47357200D01*
X192202618Y-47357200D02*
X192059761Y-47404819D01*
X192059761Y-47404819D02*
X191964523Y-47404819D01*
X191964523Y-47404819D02*
X191821666Y-47357200D01*
X191821666Y-47357200D02*
X191726428Y-47261961D01*
X191726428Y-47261961D02*
X191678809Y-47166723D01*
X191678809Y-47166723D02*
X191631190Y-46976247D01*
X191631190Y-46976247D02*
X191631190Y-46833390D01*
X191631190Y-46833390D02*
X191678809Y-46642914D01*
X191678809Y-46642914D02*
X191726428Y-46547676D01*
X191726428Y-46547676D02*
X191821666Y-46452438D01*
X191821666Y-46452438D02*
X191964523Y-46404819D01*
X191964523Y-46404819D02*
X192059761Y-46404819D01*
X192059761Y-46404819D02*
X192202618Y-46452438D01*
X192202618Y-46452438D02*
X192250237Y-46500057D01*
X192440714Y-47500057D02*
X193202618Y-47500057D01*
X194012142Y-47404819D02*
X193678809Y-46928628D01*
X193440714Y-47404819D02*
X193440714Y-46404819D01*
X193440714Y-46404819D02*
X193821666Y-46404819D01*
X193821666Y-46404819D02*
X193916904Y-46452438D01*
X193916904Y-46452438D02*
X193964523Y-46500057D01*
X193964523Y-46500057D02*
X194012142Y-46595295D01*
X194012142Y-46595295D02*
X194012142Y-46738152D01*
X194012142Y-46738152D02*
X193964523Y-46833390D01*
X193964523Y-46833390D02*
X193916904Y-46881009D01*
X193916904Y-46881009D02*
X193821666Y-46928628D01*
X193821666Y-46928628D02*
X193440714Y-46928628D01*
X194393095Y-47357200D02*
X194535952Y-47404819D01*
X194535952Y-47404819D02*
X194774047Y-47404819D01*
X194774047Y-47404819D02*
X194869285Y-47357200D01*
X194869285Y-47357200D02*
X194916904Y-47309580D01*
X194916904Y-47309580D02*
X194964523Y-47214342D01*
X194964523Y-47214342D02*
X194964523Y-47119104D01*
X194964523Y-47119104D02*
X194916904Y-47023866D01*
X194916904Y-47023866D02*
X194869285Y-46976247D01*
X194869285Y-46976247D02*
X194774047Y-46928628D01*
X194774047Y-46928628D02*
X194583571Y-46881009D01*
X194583571Y-46881009D02*
X194488333Y-46833390D01*
X194488333Y-46833390D02*
X194440714Y-46785771D01*
X194440714Y-46785771D02*
X194393095Y-46690533D01*
X194393095Y-46690533D02*
X194393095Y-46595295D01*
X194393095Y-46595295D02*
X194440714Y-46500057D01*
X194440714Y-46500057D02*
X194488333Y-46452438D01*
X194488333Y-46452438D02*
X194583571Y-46404819D01*
X194583571Y-46404819D02*
X194821666Y-46404819D01*
X194821666Y-46404819D02*
X194964523Y-46452438D01*
X195250238Y-46404819D02*
X195821666Y-46404819D01*
X195535952Y-47404819D02*
X195535952Y-46404819D01*
X196678809Y-47404819D02*
X196107381Y-47404819D01*
X196393095Y-47404819D02*
X196393095Y-46404819D01*
X196393095Y-46404819D02*
X196297857Y-46547676D01*
X196297857Y-46547676D02*
X196202619Y-46642914D01*
X196202619Y-46642914D02*
X196107381Y-46690533D01*
X213834819Y-58271904D02*
X214644342Y-58271904D01*
X214644342Y-58271904D02*
X214739580Y-58224285D01*
X214739580Y-58224285D02*
X214787200Y-58176666D01*
X214787200Y-58176666D02*
X214834819Y-58081428D01*
X214834819Y-58081428D02*
X214834819Y-57890952D01*
X214834819Y-57890952D02*
X214787200Y-57795714D01*
X214787200Y-57795714D02*
X214739580Y-57748095D01*
X214739580Y-57748095D02*
X214644342Y-57700476D01*
X214644342Y-57700476D02*
X213834819Y-57700476D01*
X213930057Y-57271904D02*
X213882438Y-57224285D01*
X213882438Y-57224285D02*
X213834819Y-57129047D01*
X213834819Y-57129047D02*
X213834819Y-56890952D01*
X213834819Y-56890952D02*
X213882438Y-56795714D01*
X213882438Y-56795714D02*
X213930057Y-56748095D01*
X213930057Y-56748095D02*
X214025295Y-56700476D01*
X214025295Y-56700476D02*
X214120533Y-56700476D01*
X214120533Y-56700476D02*
X214263390Y-56748095D01*
X214263390Y-56748095D02*
X214834819Y-57319523D01*
X214834819Y-57319523D02*
X214834819Y-56700476D01*
X114508333Y-70954819D02*
X114175000Y-70478628D01*
X113936905Y-70954819D02*
X113936905Y-69954819D01*
X113936905Y-69954819D02*
X114317857Y-69954819D01*
X114317857Y-69954819D02*
X114413095Y-70002438D01*
X114413095Y-70002438D02*
X114460714Y-70050057D01*
X114460714Y-70050057D02*
X114508333Y-70145295D01*
X114508333Y-70145295D02*
X114508333Y-70288152D01*
X114508333Y-70288152D02*
X114460714Y-70383390D01*
X114460714Y-70383390D02*
X114413095Y-70431009D01*
X114413095Y-70431009D02*
X114317857Y-70478628D01*
X114317857Y-70478628D02*
X113936905Y-70478628D01*
X115365476Y-69954819D02*
X115175000Y-69954819D01*
X115175000Y-69954819D02*
X115079762Y-70002438D01*
X115079762Y-70002438D02*
X115032143Y-70050057D01*
X115032143Y-70050057D02*
X114936905Y-70192914D01*
X114936905Y-70192914D02*
X114889286Y-70383390D01*
X114889286Y-70383390D02*
X114889286Y-70764342D01*
X114889286Y-70764342D02*
X114936905Y-70859580D01*
X114936905Y-70859580D02*
X114984524Y-70907200D01*
X114984524Y-70907200D02*
X115079762Y-70954819D01*
X115079762Y-70954819D02*
X115270238Y-70954819D01*
X115270238Y-70954819D02*
X115365476Y-70907200D01*
X115365476Y-70907200D02*
X115413095Y-70859580D01*
X115413095Y-70859580D02*
X115460714Y-70764342D01*
X115460714Y-70764342D02*
X115460714Y-70526247D01*
X115460714Y-70526247D02*
X115413095Y-70431009D01*
X115413095Y-70431009D02*
X115365476Y-70383390D01*
X115365476Y-70383390D02*
X115270238Y-70335771D01*
X115270238Y-70335771D02*
X115079762Y-70335771D01*
X115079762Y-70335771D02*
X114984524Y-70383390D01*
X114984524Y-70383390D02*
X114936905Y-70431009D01*
X114936905Y-70431009D02*
X114889286Y-70526247D01*
X180436666Y-85494819D02*
X180436666Y-86209104D01*
X180436666Y-86209104D02*
X180389047Y-86351961D01*
X180389047Y-86351961D02*
X180293809Y-86447200D01*
X180293809Y-86447200D02*
X180150952Y-86494819D01*
X180150952Y-86494819D02*
X180055714Y-86494819D01*
X180865238Y-85590057D02*
X180912857Y-85542438D01*
X180912857Y-85542438D02*
X181008095Y-85494819D01*
X181008095Y-85494819D02*
X181246190Y-85494819D01*
X181246190Y-85494819D02*
X181341428Y-85542438D01*
X181341428Y-85542438D02*
X181389047Y-85590057D01*
X181389047Y-85590057D02*
X181436666Y-85685295D01*
X181436666Y-85685295D02*
X181436666Y-85780533D01*
X181436666Y-85780533D02*
X181389047Y-85923390D01*
X181389047Y-85923390D02*
X180817619Y-86494819D01*
X180817619Y-86494819D02*
X181436666Y-86494819D01*
X52683333Y-79454819D02*
X52350000Y-78978628D01*
X52111905Y-79454819D02*
X52111905Y-78454819D01*
X52111905Y-78454819D02*
X52492857Y-78454819D01*
X52492857Y-78454819D02*
X52588095Y-78502438D01*
X52588095Y-78502438D02*
X52635714Y-78550057D01*
X52635714Y-78550057D02*
X52683333Y-78645295D01*
X52683333Y-78645295D02*
X52683333Y-78788152D01*
X52683333Y-78788152D02*
X52635714Y-78883390D01*
X52635714Y-78883390D02*
X52588095Y-78931009D01*
X52588095Y-78931009D02*
X52492857Y-78978628D01*
X52492857Y-78978628D02*
X52111905Y-78978628D01*
X53064286Y-78550057D02*
X53111905Y-78502438D01*
X53111905Y-78502438D02*
X53207143Y-78454819D01*
X53207143Y-78454819D02*
X53445238Y-78454819D01*
X53445238Y-78454819D02*
X53540476Y-78502438D01*
X53540476Y-78502438D02*
X53588095Y-78550057D01*
X53588095Y-78550057D02*
X53635714Y-78645295D01*
X53635714Y-78645295D02*
X53635714Y-78740533D01*
X53635714Y-78740533D02*
X53588095Y-78883390D01*
X53588095Y-78883390D02*
X53016667Y-79454819D01*
X53016667Y-79454819D02*
X53635714Y-79454819D01*
X75178333Y-92309580D02*
X75130714Y-92357200D01*
X75130714Y-92357200D02*
X74987857Y-92404819D01*
X74987857Y-92404819D02*
X74892619Y-92404819D01*
X74892619Y-92404819D02*
X74749762Y-92357200D01*
X74749762Y-92357200D02*
X74654524Y-92261961D01*
X74654524Y-92261961D02*
X74606905Y-92166723D01*
X74606905Y-92166723D02*
X74559286Y-91976247D01*
X74559286Y-91976247D02*
X74559286Y-91833390D01*
X74559286Y-91833390D02*
X74606905Y-91642914D01*
X74606905Y-91642914D02*
X74654524Y-91547676D01*
X74654524Y-91547676D02*
X74749762Y-91452438D01*
X74749762Y-91452438D02*
X74892619Y-91404819D01*
X74892619Y-91404819D02*
X74987857Y-91404819D01*
X74987857Y-91404819D02*
X75130714Y-91452438D01*
X75130714Y-91452438D02*
X75178333Y-91500057D01*
X76083095Y-91404819D02*
X75606905Y-91404819D01*
X75606905Y-91404819D02*
X75559286Y-91881009D01*
X75559286Y-91881009D02*
X75606905Y-91833390D01*
X75606905Y-91833390D02*
X75702143Y-91785771D01*
X75702143Y-91785771D02*
X75940238Y-91785771D01*
X75940238Y-91785771D02*
X76035476Y-91833390D01*
X76035476Y-91833390D02*
X76083095Y-91881009D01*
X76083095Y-91881009D02*
X76130714Y-91976247D01*
X76130714Y-91976247D02*
X76130714Y-92214342D01*
X76130714Y-92214342D02*
X76083095Y-92309580D01*
X76083095Y-92309580D02*
X76035476Y-92357200D01*
X76035476Y-92357200D02*
X75940238Y-92404819D01*
X75940238Y-92404819D02*
X75702143Y-92404819D01*
X75702143Y-92404819D02*
X75606905Y-92357200D01*
X75606905Y-92357200D02*
X75559286Y-92309580D01*
X197038095Y-67029819D02*
X197038095Y-67839342D01*
X197038095Y-67839342D02*
X197085714Y-67934580D01*
X197085714Y-67934580D02*
X197133333Y-67982200D01*
X197133333Y-67982200D02*
X197228571Y-68029819D01*
X197228571Y-68029819D02*
X197419047Y-68029819D01*
X197419047Y-68029819D02*
X197514285Y-67982200D01*
X197514285Y-67982200D02*
X197561904Y-67934580D01*
X197561904Y-67934580D02*
X197609523Y-67839342D01*
X197609523Y-67839342D02*
X197609523Y-67029819D01*
X197990476Y-67029819D02*
X198609523Y-67029819D01*
X198609523Y-67029819D02*
X198276190Y-67410771D01*
X198276190Y-67410771D02*
X198419047Y-67410771D01*
X198419047Y-67410771D02*
X198514285Y-67458390D01*
X198514285Y-67458390D02*
X198561904Y-67506009D01*
X198561904Y-67506009D02*
X198609523Y-67601247D01*
X198609523Y-67601247D02*
X198609523Y-67839342D01*
X198609523Y-67839342D02*
X198561904Y-67934580D01*
X198561904Y-67934580D02*
X198514285Y-67982200D01*
X198514285Y-67982200D02*
X198419047Y-68029819D01*
X198419047Y-68029819D02*
X198133333Y-68029819D01*
X198133333Y-68029819D02*
X198038095Y-67982200D01*
X198038095Y-67982200D02*
X197990476Y-67934580D01*
D12*
%TO.C,5V1*%
X37830000Y-51000000D02*
X37830000Y-55000000D01*
X38120000Y-49970000D02*
X38120000Y-55990000D01*
X38120000Y-55990000D02*
X43420000Y-55990000D01*
X38700000Y-49970000D02*
X38700000Y-50570000D01*
X38700000Y-50570000D02*
X40300000Y-50570000D01*
X39500000Y-54990000D02*
X39750000Y-54460000D01*
X39500000Y-54990000D02*
X42040000Y-54990000D01*
X39500000Y-55990000D02*
X39500000Y-54990000D01*
X39750000Y-54460000D02*
X41790000Y-54460000D01*
X39750000Y-55990000D02*
X39750000Y-54990000D01*
X40300000Y-50570000D02*
X40300000Y-49970000D01*
X41240000Y-49970000D02*
X41240000Y-50570000D01*
X41240000Y-50570000D02*
X42840000Y-50570000D01*
X41790000Y-54460000D02*
X42040000Y-54990000D01*
X41790000Y-55990000D02*
X41790000Y-54990000D01*
X42040000Y-54990000D02*
X42040000Y-55990000D01*
X42840000Y-50570000D02*
X42840000Y-49970000D01*
X43420000Y-49970000D02*
X38120000Y-49970000D01*
X43420000Y-55990000D02*
X43420000Y-49970000D01*
%TO.C,R4*%
X183262742Y-72977500D02*
X183737258Y-72977500D01*
X183262742Y-74022500D02*
X183737258Y-74022500D01*
%TO.C,R5*%
X164437742Y-43977500D02*
X164912258Y-43977500D01*
X164437742Y-45022500D02*
X164912258Y-45022500D01*
%TO.C,J3*%
X89500000Y-44230000D02*
X104500000Y-44230000D01*
X89500000Y-60330000D02*
X89500000Y-44230000D01*
X92650000Y-59570000D02*
X92650000Y-60330000D01*
X92650000Y-60330000D02*
X89500000Y-60330000D01*
X101350000Y-59570000D02*
X92650000Y-59570000D01*
X101350000Y-60330000D02*
X101350000Y-59570000D01*
X104500000Y-44230000D02*
X104500000Y-60330000D01*
X104500000Y-60330000D02*
X101350000Y-60330000D01*
%TO.C,R3*%
X200437742Y-87477500D02*
X200912258Y-87477500D01*
X200437742Y-88522500D02*
X200912258Y-88522500D01*
%TO.C,L_RF1*%
X134200000Y-81300000D02*
X140800000Y-81300000D01*
X134200000Y-83000000D02*
X134200000Y-81300000D01*
X134200000Y-87700000D02*
X134200000Y-86000000D01*
X140800000Y-81300000D02*
X140800000Y-83000000D01*
X140800000Y-86000000D02*
X140800000Y-87700000D01*
X140800000Y-87700000D02*
X134200000Y-87700000D01*
%TO.C,J1*%
X153660000Y-60400000D02*
X153660000Y-64400000D01*
X153950000Y-56690000D02*
X156230000Y-56690000D01*
X153950000Y-66660000D02*
X153950000Y-56690000D01*
X153950000Y-66660000D02*
X177170000Y-66660000D01*
X153950000Y-67660000D02*
X153950000Y-66660000D01*
X156230000Y-56690000D02*
X156230000Y-57090000D01*
X156230000Y-57090000D02*
X158930000Y-57090000D01*
X158930000Y-56690000D02*
X177170000Y-56690000D01*
X158930000Y-57090000D02*
X158930000Y-56690000D01*
X177170000Y-56690000D02*
X177170000Y-67660000D01*
X177170000Y-67660000D02*
X153950000Y-67660000D01*
%TO.C,U1*%
X38465000Y-77845000D02*
X42585000Y-77845000D01*
X38465000Y-77940000D02*
X38465000Y-77845000D01*
X38465000Y-82965000D02*
X38465000Y-82870000D01*
X42585000Y-77845000D02*
X42585000Y-77940000D01*
X42585000Y-82870000D02*
X42585000Y-82965000D01*
X42585000Y-82965000D02*
X38465000Y-82965000D01*
X37925000Y-77935000D02*
X37685000Y-77605000D01*
X38165000Y-77605000D01*
X37925000Y-77935000D01*
G36*
X37925000Y-77935000D02*
G01*
X37685000Y-77605000D01*
X38165000Y-77605000D01*
X37925000Y-77935000D01*
G37*
%TO.C,R1*%
X54437742Y-76977500D02*
X54912258Y-76977500D01*
X54437742Y-78022500D02*
X54912258Y-78022500D01*
%TO.C,R_PWR1*%
X194437742Y-80477500D02*
X194912258Y-80477500D01*
X194437742Y-81522500D02*
X194912258Y-81522500D01*
%TO.C,U2*%
X215470000Y-39620000D02*
X215470000Y-75400000D01*
X215470000Y-41800000D02*
X216070000Y-41800000D01*
X215470000Y-44340000D02*
X216070000Y-44340000D01*
X215470000Y-46880000D02*
X216070000Y-46880000D01*
X215470000Y-49420000D02*
X216070000Y-49420000D01*
X215470000Y-51960000D02*
X216070000Y-51960000D01*
X215470000Y-54500000D02*
X216070000Y-54500000D01*
X215470000Y-57040000D02*
X216070000Y-57040000D01*
X215470000Y-59580000D02*
X216070000Y-59580000D01*
X215470000Y-62120000D02*
X216070000Y-62120000D01*
X215470000Y-64660000D02*
X216070000Y-64660000D01*
X215470000Y-67200000D02*
X216070000Y-67200000D01*
X215470000Y-69740000D02*
X216070000Y-69740000D01*
X215470000Y-72280000D02*
X216070000Y-72280000D01*
X215470000Y-74820000D02*
X216070000Y-74820000D01*
X215470000Y-75400000D02*
X221490000Y-75400000D01*
X216070000Y-40200000D02*
X215470000Y-40200000D01*
X216070000Y-41800000D02*
X216070000Y-40200000D01*
X216070000Y-42740000D02*
X215470000Y-42740000D01*
X216070000Y-44340000D02*
X216070000Y-42740000D01*
X216070000Y-45280000D02*
X215470000Y-45280000D01*
X216070000Y-46880000D02*
X216070000Y-45280000D01*
X216070000Y-47820000D02*
X215470000Y-47820000D01*
X216070000Y-49420000D02*
X216070000Y-47820000D01*
X216070000Y-50360000D02*
X215470000Y-50360000D01*
X216070000Y-51960000D02*
X216070000Y-50360000D01*
X216070000Y-52900000D02*
X215470000Y-52900000D01*
X216070000Y-54500000D02*
X216070000Y-52900000D01*
X216070000Y-55440000D02*
X215470000Y-55440000D01*
X216070000Y-57040000D02*
X216070000Y-55440000D01*
X216070000Y-57980000D02*
X215470000Y-57980000D01*
X216070000Y-59580000D02*
X216070000Y-57980000D01*
X216070000Y-60520000D02*
X215470000Y-60520000D01*
X216070000Y-62120000D02*
X216070000Y-60520000D01*
X216070000Y-63060000D02*
X215470000Y-63060000D01*
X216070000Y-64660000D02*
X216070000Y-63060000D01*
X216070000Y-65600000D02*
X215470000Y-65600000D01*
X216070000Y-67200000D02*
X216070000Y-65600000D01*
X216070000Y-68140000D02*
X215470000Y-68140000D01*
X216070000Y-69740000D02*
X216070000Y-68140000D01*
X216070000Y-70680000D02*
X215470000Y-70680000D01*
X216070000Y-72280000D02*
X216070000Y-70680000D01*
X216070000Y-73220000D02*
X215470000Y-73220000D01*
X216070000Y-74820000D02*
X216070000Y-73220000D01*
X216500000Y-75690000D02*
X220500000Y-75690000D01*
X219960000Y-41250000D02*
X219960000Y-46080000D01*
X219960000Y-46080000D02*
X220490000Y-46080000D01*
X219960000Y-68940000D02*
X220490000Y-68940000D01*
X219960000Y-73770000D02*
X219960000Y-68940000D01*
X220490000Y-41000000D02*
X219960000Y-41250000D01*
X220490000Y-41000000D02*
X220490000Y-46080000D01*
X220490000Y-46080000D02*
X221490000Y-46080000D01*
X220490000Y-68940000D02*
X221490000Y-68940000D01*
X220490000Y-74020000D02*
X219960000Y-73770000D01*
X220490000Y-74020000D02*
X220490000Y-68940000D01*
X221490000Y-39620000D02*
X215470000Y-39620000D01*
X221490000Y-41000000D02*
X220490000Y-41000000D01*
X221490000Y-41250000D02*
X220490000Y-41250000D01*
X221490000Y-73770000D02*
X220490000Y-73770000D01*
X221490000Y-74020000D02*
X220490000Y-74020000D01*
X221490000Y-75400000D02*
X221490000Y-39620000D01*
%TO.C,R6*%
X113437742Y-71477500D02*
X113912258Y-71477500D01*
X113437742Y-72522500D02*
X113912258Y-72522500D01*
%TO.C,J2*%
X175290000Y-88160000D02*
X175290000Y-92160000D01*
X175580000Y-87130000D02*
X175580000Y-93150000D01*
X175580000Y-93150000D02*
X185960000Y-93150000D01*
X176160000Y-87130000D02*
X176160000Y-87730000D01*
X176160000Y-87730000D02*
X177760000Y-87730000D01*
X176960000Y-92150000D02*
X177210000Y-91620000D01*
X176960000Y-92150000D02*
X184580000Y-92150000D01*
X176960000Y-93150000D02*
X176960000Y-92150000D01*
X177210000Y-91620000D02*
X184330000Y-91620000D01*
X177210000Y-93150000D02*
X177210000Y-92150000D01*
X177760000Y-87730000D02*
X177760000Y-87130000D01*
X178700000Y-87130000D02*
X178700000Y-87730000D01*
X178700000Y-87730000D02*
X180300000Y-87730000D01*
X180300000Y-87730000D02*
X180300000Y-87130000D01*
X181240000Y-87130000D02*
X181240000Y-87730000D01*
X181240000Y-87730000D02*
X182840000Y-87730000D01*
X182840000Y-87730000D02*
X182840000Y-87130000D01*
X183780000Y-87130000D02*
X183780000Y-87730000D01*
X183780000Y-87730000D02*
X185380000Y-87730000D01*
X184330000Y-91620000D02*
X184580000Y-92150000D01*
X184330000Y-93150000D02*
X184330000Y-92150000D01*
X184580000Y-92150000D02*
X184580000Y-93150000D01*
X185380000Y-87730000D02*
X185380000Y-87130000D01*
X185960000Y-87130000D02*
X175580000Y-87130000D01*
X185960000Y-93150000D02*
X185960000Y-87130000D01*
%TO.C,R2*%
X55262742Y-76977500D02*
X55737258Y-76977500D01*
X55262742Y-78022500D02*
X55737258Y-78022500D01*
%TO.C,U3*%
X199300000Y-68475000D02*
X196300000Y-68475000D01*
X199300000Y-71475000D02*
X196300000Y-71475000D01*
X195950000Y-68575000D02*
X195710000Y-68245000D01*
X196190000Y-68245000D01*
X195950000Y-68575000D01*
G36*
X195950000Y-68575000D02*
G01*
X195710000Y-68245000D01*
X196190000Y-68245000D01*
X195950000Y-68575000D01*
G37*
%TD*%
M02*
