%TF.GenerationSoftware,KiCad,Pcbnew,9.0.6*%
%TF.CreationDate,2025-12-25T12:15:46+05:30*%
%TF.ProjectId,LIMELIGHT_assignment,4c494d45-4c49-4474-9854-5f6173736967,rev?*%
%TF.SameCoordinates,Original*%
%TF.FileFunction,Soldermask,Top*%
%TF.FilePolarity,Negative*%
%FSLAX46Y46*%
G04 Gerber Fmt 4.6, Leading zero omitted, Abs format (unit mm)*
G04 Created by KiCad (PCBNEW 9.0.6) date 2025-12-25 12:15:46*
%MOMM*%
%LPD*%
G01*
G04 APERTURE LIST*
G04 Aperture macros list*
%AMRoundRect*
0 Rectangle with rounded corners*
0 $1 Rounding radius*
0 $2 $3 $4 $5 $6 $7 $8 $9 X,Y pos of 4 corners*
0 Add a 4 corners polygon primitive as box body*
4,1,4,$2,$3,$4,$5,$6,$7,$8,$9,$2,$3,0*
0 Add four circle primitives for the rounded corners*
1,1,$1+$1,$2,$3*
1,1,$1+$1,$4,$5*
1,1,$1+$1,$6,$7*
1,1,$1+$1,$8,$9*
0 Add four rect primitives between the rounded corners*
20,1,$1+$1,$2,$3,$4,$5,0*
20,1,$1+$1,$4,$5,$6,$7,0*
20,1,$1+$1,$6,$7,$8,$9,0*
20,1,$1+$1,$8,$9,$2,$3,0*%
G04 Aperture macros list end*
%ADD10RoundRect,0.100000X-0.130000X-0.100000X0.130000X-0.100000X0.130000X0.100000X-0.130000X0.100000X0*%
%ADD11RoundRect,0.250000X-0.620000X-0.845000X0.620000X-0.845000X0.620000X0.845000X-0.620000X0.845000X0*%
%ADD12O,1.740000X2.190000*%
%ADD13RoundRect,0.200000X-0.200000X-0.275000X0.200000X-0.275000X0.200000X0.275000X-0.200000X0.275000X0*%
%ADD14C,4.000000*%
%ADD15RoundRect,0.400000X0.400000X0.400000X-0.400000X0.400000X-0.400000X-0.400000X0.400000X-0.400000X0*%
%ADD16C,1.600000*%
%ADD17R,1.500000X2.400000*%
%ADD18RoundRect,0.250000X-1.330000X-1.850000X1.330000X-1.850000X1.330000X1.850000X-1.330000X1.850000X0*%
%ADD19O,3.160000X4.200000*%
%ADD20RoundRect,0.150000X-0.825000X-0.150000X0.825000X-0.150000X0.825000X0.150000X-0.825000X0.150000X0*%
%ADD21RoundRect,0.250000X0.845000X-0.620000X0.845000X0.620000X-0.845000X0.620000X-0.845000X-0.620000X0*%
%ADD22O,2.190000X1.740000*%
%ADD23R,1.600000X0.300000*%
G04 APERTURE END LIST*
D10*
%TO.C,C3*%
X148015000Y-59500000D03*
X148655000Y-59500000D03*
%TD*%
%TO.C,C_RF2*%
X110335000Y-52000000D03*
X110975000Y-52000000D03*
%TD*%
D11*
%TO.C,5V1*%
X39500000Y-53000000D03*
D12*
X42040000Y-53000000D03*
%TD*%
D13*
%TO.C,R4*%
X182675000Y-73500000D03*
X184325000Y-73500000D03*
%TD*%
%TO.C,R5*%
X163850000Y-44500000D03*
X165500000Y-44500000D03*
%TD*%
D14*
%TO.C,J3*%
X91920000Y-56980000D03*
X102080000Y-46820000D03*
D15*
X97000000Y-51900000D03*
D16*
X99540000Y-51900000D03*
%TD*%
D13*
%TO.C,R3*%
X199850000Y-88000000D03*
X201500000Y-88000000D03*
%TD*%
D10*
%TO.C,C4*%
X148335000Y-59500000D03*
X148975000Y-59500000D03*
%TD*%
D17*
%TO.C,L_RF1*%
X134750000Y-84500000D03*
X140250000Y-84500000D03*
%TD*%
D18*
%TO.C,J1*%
X155660000Y-62400000D03*
D19*
X159620000Y-62400000D03*
X163580000Y-62400000D03*
X167540000Y-62400000D03*
X171500000Y-62400000D03*
X175460000Y-62400000D03*
%TD*%
D20*
%TO.C,U1*%
X38050000Y-78500000D03*
X38050000Y-79770000D03*
X38050000Y-81040000D03*
X38050000Y-82310000D03*
X43000000Y-82310000D03*
X43000000Y-81040000D03*
X43000000Y-79770000D03*
X43000000Y-78500000D03*
%TD*%
D13*
%TO.C,R1*%
X53850000Y-77500000D03*
X55500000Y-77500000D03*
%TD*%
D10*
%TO.C,C2*%
X82025000Y-78500000D03*
X82665000Y-78500000D03*
%TD*%
%TO.C,C_RF1*%
X180360000Y-48000000D03*
X181000000Y-48000000D03*
%TD*%
%TO.C,C1*%
X63180000Y-77500000D03*
X63820000Y-77500000D03*
%TD*%
D13*
%TO.C,R_PWR1*%
X193850000Y-81000000D03*
X195500000Y-81000000D03*
%TD*%
D10*
%TO.C,C_RST1*%
X193835000Y-48000000D03*
X194475000Y-48000000D03*
%TD*%
D21*
%TO.C,U2*%
X218500000Y-74020000D03*
D22*
X218500000Y-71480000D03*
X218500000Y-68940000D03*
X218500000Y-66400000D03*
X218500000Y-63860000D03*
X218500000Y-61320000D03*
X218500000Y-58780000D03*
X218500000Y-56240000D03*
X218500000Y-53700000D03*
X218500000Y-51160000D03*
X218500000Y-48620000D03*
X218500000Y-46080000D03*
X218500000Y-43540000D03*
X218500000Y-41000000D03*
%TD*%
D13*
%TO.C,R6*%
X112850000Y-72000000D03*
X114500000Y-72000000D03*
%TD*%
D11*
%TO.C,J2*%
X176960000Y-90160000D03*
D12*
X179500000Y-90160000D03*
X182040000Y-90160000D03*
X184580000Y-90160000D03*
%TD*%
D13*
%TO.C,R2*%
X54675000Y-77500000D03*
X56325000Y-77500000D03*
%TD*%
D10*
%TO.C,C5*%
X75025000Y-93000000D03*
X75665000Y-93000000D03*
%TD*%
D23*
%TO.C,U3*%
X196100000Y-69000000D03*
X196100000Y-69650000D03*
X196100000Y-70300000D03*
X196100000Y-70950000D03*
X199500000Y-70950000D03*
X199500000Y-70300000D03*
X199500000Y-69650000D03*
X199500000Y-69000000D03*
%TD*%
M02*
