%TF.GenerationSoftware,KiCad,Pcbnew,9.0.6*%
%TF.CreationDate,2025-12-25T12:15:46+05:30*%
%TF.ProjectId,LIMELIGHT_assignment,4c494d45-4c49-4474-9854-5f6173736967,rev?*%
%TF.SameCoordinates,Original*%
%TF.FileFunction,Copper,L1,Top*%
%TF.FilePolarity,Positive*%
%FSLAX46Y46*%
G04 Gerber Fmt 4.6, Leading zero omitted, Abs format (unit mm)*
G04 Created by KiCad (PCBNEW 9.0.6) date 2025-12-25 12:15:46*
%MOMM*%
%LPD*%
G01*
G04 APERTURE LIST*
G04 Aperture macros list*
%AMRoundRect*
0 Rectangle with rounded corners*
0 $1 Rounding radius*
0 $2 $3 $4 $5 $6 $7 $8 $9 X,Y pos of 4 corners*
0 Add a 4 corners polygon primitive as box body*
4,1,4,$2,$3,$4,$5,$6,$7,$8,$9,$2,$3,0*
0 Add four circle primitives for the rounded corners*
1,1,$1+$1,$2,$3*
1,1,$1+$1,$4,$5*
1,1,$1+$1,$6,$7*
1,1,$1+$1,$8,$9*
0 Add four rect primitives between the rounded corners*
20,1,$1+$1,$2,$3,$4,$5,0*
20,1,$1+$1,$4,$5,$6,$7,0*
20,1,$1+$1,$6,$7,$8,$9,0*
20,1,$1+$1,$8,$9,$2,$3,0*%
G04 Aperture macros list end*
%TA.AperFunction,SMDPad,CuDef*%
%ADD10RoundRect,0.100000X-0.130000X-0.100000X0.130000X-0.100000X0.130000X0.100000X-0.130000X0.100000X0*%
%TD*%
%TA.AperFunction,ComponentPad*%
%ADD11RoundRect,0.250000X-0.620000X-0.845000X0.620000X-0.845000X0.620000X0.845000X-0.620000X0.845000X0*%
%TD*%
%TA.AperFunction,ComponentPad*%
%ADD12O,1.740000X2.190000*%
%TD*%
%TA.AperFunction,SMDPad,CuDef*%
%ADD13RoundRect,0.200000X-0.200000X-0.275000X0.200000X-0.275000X0.200000X0.275000X-0.200000X0.275000X0*%
%TD*%
%TA.AperFunction,ComponentPad*%
%ADD14C,4.000000*%
%TD*%
%TA.AperFunction,ComponentPad*%
%ADD15RoundRect,0.400000X0.400000X0.400000X-0.400000X0.400000X-0.400000X-0.400000X0.400000X-0.400000X0*%
%TD*%
%TA.AperFunction,ComponentPad*%
%ADD16C,1.600000*%
%TD*%
%TA.AperFunction,SMDPad,CuDef*%
%ADD17R,1.500000X2.400000*%
%TD*%
%TA.AperFunction,ComponentPad*%
%ADD18RoundRect,0.250000X-1.330000X-1.850000X1.330000X-1.850000X1.330000X1.850000X-1.330000X1.850000X0*%
%TD*%
%TA.AperFunction,ComponentPad*%
%ADD19O,3.160000X4.200000*%
%TD*%
%TA.AperFunction,SMDPad,CuDef*%
%ADD20RoundRect,0.150000X-0.825000X-0.150000X0.825000X-0.150000X0.825000X0.150000X-0.825000X0.150000X0*%
%TD*%
%TA.AperFunction,ComponentPad*%
%ADD21RoundRect,0.250000X0.845000X-0.620000X0.845000X0.620000X-0.845000X0.620000X-0.845000X-0.620000X0*%
%TD*%
%TA.AperFunction,ComponentPad*%
%ADD22O,2.190000X1.740000*%
%TD*%
%TA.AperFunction,SMDPad,CuDef*%
%ADD23R,1.600000X0.300000*%
%TD*%
%TA.AperFunction,ViaPad*%
%ADD24C,0.600000*%
%TD*%
%TA.AperFunction,Conductor*%
%ADD25C,0.200000*%
%TD*%
G04 APERTURE END LIST*
D10*
%TO.P,C3,1*%
%TO.N,Net-(5V1-Pin_1)*%
X148015000Y-59500000D03*
%TO.P,C3,2*%
%TO.N,Net-(5V1-Pin_2)*%
X148655000Y-59500000D03*
%TD*%
%TO.P,C_RF2,1*%
%TO.N,Net-(5V1-Pin_2)*%
X110335000Y-52000000D03*
%TO.P,C_RF2,2*%
%TO.N,Net-(J3-In)*%
X110975000Y-52000000D03*
%TD*%
D11*
%TO.P,5V1,1,Pin_1*%
%TO.N,Net-(5V1-Pin_1)*%
X39500000Y-53000000D03*
D12*
%TO.P,5V1,2,Pin_2*%
%TO.N,Net-(5V1-Pin_2)*%
X42040000Y-53000000D03*
%TD*%
D13*
%TO.P,R4,1*%
%TO.N,Net-(U2-Pin_9)*%
X182675000Y-73500000D03*
%TO.P,R4,2*%
%TO.N,Net-(J1-Pin_4)*%
X184325000Y-73500000D03*
%TD*%
%TO.P,R5,1*%
%TO.N,Net-(U2-Pin_10)*%
X163850000Y-44500000D03*
%TO.P,R5,2*%
%TO.N,Net-(J1-Pin_3)*%
X165500000Y-44500000D03*
%TD*%
D14*
%TO.P,J3,*%
%TO.N,*%
X91920000Y-56980000D03*
X102080000Y-46820000D03*
D15*
%TO.P,J3,1,In*%
%TO.N,Net-(J3-In)*%
X97000000Y-51900000D03*
D16*
%TO.P,J3,2,Ext*%
%TO.N,Net-(5V1-Pin_2)*%
X99540000Y-51900000D03*
%TD*%
D13*
%TO.P,R3,1*%
%TO.N,Net-(U2-Pin_8)*%
X199850000Y-88000000D03*
%TO.P,R3,2*%
%TO.N,Net-(J1-Pin_5)*%
X201500000Y-88000000D03*
%TD*%
D10*
%TO.P,C4,1*%
%TO.N,Net-(5V1-Pin_1)*%
X148335000Y-59500000D03*
%TO.P,C4,2*%
%TO.N,Net-(5V1-Pin_2)*%
X148975000Y-59500000D03*
%TD*%
D17*
%TO.P,L_RF1,1,1*%
%TO.N,unconnected-(L_RF1-Pad1)*%
X134750000Y-84500000D03*
%TO.P,L_RF1,2,2*%
%TO.N,Net-(J3-In)*%
X140250000Y-84500000D03*
%TD*%
D18*
%TO.P,J1,1,Pin_1*%
%TO.N,Net-(5V1-Pin_2)*%
X155660000Y-62400000D03*
D19*
%TO.P,J1,2,Pin_2*%
%TO.N,Net-(J1-Pin_2)*%
X159620000Y-62400000D03*
%TO.P,J1,3,Pin_3*%
%TO.N,Net-(J1-Pin_3)*%
X163580000Y-62400000D03*
%TO.P,J1,4,Pin_4*%
%TO.N,Net-(J1-Pin_4)*%
X167540000Y-62400000D03*
%TO.P,J1,5,Pin_5*%
%TO.N,Net-(J1-Pin_5)*%
X171500000Y-62400000D03*
%TO.P,J1,6,Pin_6*%
%TO.N,Net-(J1-Pin_6)*%
X175460000Y-62400000D03*
%TD*%
D20*
%TO.P,U1,1,VIN*%
%TO.N,Net-(5V1-Pin_1)*%
X38050000Y-78500000D03*
%TO.P,U1,2,VBAT_3V8*%
%TO.N,Net-(U1-VBAT_3V8)*%
X38050000Y-79770000D03*
%TO.P,U1,3,FB*%
%TO.N,Net-(U1-FB)*%
X38050000Y-81040000D03*
%TO.P,U1,4,~{EN}*%
%TO.N,Net-(5V1-Pin_1)*%
X38050000Y-82310000D03*
%TO.P,U1,5,GND*%
%TO.N,Net-(5V1-Pin_2)*%
X43000000Y-82310000D03*
%TO.P,U1,6,GND*%
X43000000Y-81040000D03*
%TO.P,U1,7,GND*%
X43000000Y-79770000D03*
%TO.P,U1,8,GND*%
X43000000Y-78500000D03*
%TD*%
D13*
%TO.P,R1,1*%
%TO.N,Net-(U1-VBAT_3V8)*%
X53850000Y-77500000D03*
%TO.P,R1,2*%
%TO.N,Net-(U1-FB)*%
X55500000Y-77500000D03*
%TD*%
D10*
%TO.P,C2,1*%
%TO.N,Net-(U1-VBAT_3V8)*%
X82025000Y-78500000D03*
%TO.P,C2,2*%
%TO.N,Net-(5V1-Pin_2)*%
X82665000Y-78500000D03*
%TD*%
%TO.P,C_RF1,1*%
%TO.N,Net-(U2-Pin_14)*%
X180360000Y-48000000D03*
%TO.P,C_RF1,2*%
%TO.N,Net-(5V1-Pin_2)*%
X181000000Y-48000000D03*
%TD*%
%TO.P,C1,1*%
%TO.N,Net-(U1-VBAT_3V8)*%
X63180000Y-77500000D03*
%TO.P,C1,2*%
%TO.N,Net-(5V1-Pin_2)*%
X63820000Y-77500000D03*
%TD*%
D13*
%TO.P,R_PWR1,1*%
%TO.N,Net-(U2-Pin_3)*%
X193850000Y-81000000D03*
%TO.P,R_PWR1,2*%
%TO.N,Net-(U2-Pin_4)*%
X195500000Y-81000000D03*
%TD*%
D10*
%TO.P,C_RST1,1*%
%TO.N,Net-(U2-Pin_5)*%
X193835000Y-48000000D03*
%TO.P,C_RST1,2*%
%TO.N,Net-(U2-Pin_6)*%
X194475000Y-48000000D03*
%TD*%
D21*
%TO.P,U2,1,Pin_1*%
%TO.N,Net-(U1-VBAT_3V8)*%
X218500000Y-74020000D03*
D22*
%TO.P,U2,2,Pin_2*%
X218500000Y-71480000D03*
%TO.P,U2,3,Pin_3*%
%TO.N,Net-(U2-Pin_3)*%
X218500000Y-68940000D03*
%TO.P,U2,4,Pin_4*%
%TO.N,Net-(U2-Pin_4)*%
X218500000Y-66400000D03*
%TO.P,U2,5,Pin_5*%
%TO.N,Net-(U2-Pin_5)*%
X218500000Y-63860000D03*
%TO.P,U2,6,Pin_6*%
%TO.N,Net-(U2-Pin_6)*%
X218500000Y-61320000D03*
%TO.P,U2,7,Pin_7*%
%TO.N,Net-(J1-Pin_6)*%
X218500000Y-58780000D03*
%TO.P,U2,8,Pin_8*%
%TO.N,Net-(U2-Pin_8)*%
X218500000Y-56240000D03*
%TO.P,U2,9,Pin_9*%
%TO.N,Net-(U2-Pin_9)*%
X218500000Y-53700000D03*
%TO.P,U2,10,Pin_10*%
%TO.N,Net-(U2-Pin_10)*%
X218500000Y-51160000D03*
%TO.P,U2,11,Pin_11*%
%TO.N,Net-(J1-Pin_2)*%
X218500000Y-48620000D03*
%TO.P,U2,12,Pin_12*%
%TO.N,Net-(U2-Pin_12)*%
X218500000Y-46080000D03*
%TO.P,U2,13,Pin_13*%
%TO.N,Net-(U2-Pin_13)*%
X218500000Y-43540000D03*
%TO.P,U2,14,Pin_14*%
%TO.N,Net-(U2-Pin_14)*%
X218500000Y-41000000D03*
%TD*%
D13*
%TO.P,R6,1*%
%TO.N,Net-(J1-Pin_6)*%
X112850000Y-72000000D03*
%TO.P,R6,2*%
%TO.N,Net-(J1-Pin_2)*%
X114500000Y-72000000D03*
%TD*%
D11*
%TO.P,J2,1,Pin_1*%
%TO.N,Net-(J2-Pin_1)*%
X176960000Y-90160000D03*
D12*
%TO.P,J2,2,Pin_2*%
%TO.N,Net-(J2-Pin_2)*%
X179500000Y-90160000D03*
%TO.P,J2,3,Pin_3*%
%TO.N,Net-(J2-Pin_3)*%
X182040000Y-90160000D03*
%TO.P,J2,4,Pin_4*%
%TO.N,Net-(J2-Pin_4)*%
X184580000Y-90160000D03*
%TD*%
D13*
%TO.P,R2,1*%
%TO.N,Net-(5V1-Pin_2)*%
X54675000Y-77500000D03*
%TO.P,R2,2*%
%TO.N,Net-(U1-FB)*%
X56325000Y-77500000D03*
%TD*%
D10*
%TO.P,C5,1*%
%TO.N,Net-(J1-Pin_6)*%
X75025000Y-93000000D03*
%TO.P,C5,2*%
%TO.N,Net-(5V1-Pin_2)*%
X75665000Y-93000000D03*
%TD*%
D23*
%TO.P,U3,1,B2*%
%TO.N,Net-(J2-Pin_3)*%
X196100000Y-69000000D03*
%TO.P,U3,2,GND*%
%TO.N,Net-(J2-Pin_4)*%
X196100000Y-69650000D03*
%TO.P,U3,3,VCCA*%
%TO.N,Net-(U2-Pin_3)*%
X196100000Y-70300000D03*
%TO.P,U3,4,A2*%
%TO.N,Net-(U2-Pin_12)*%
X196100000Y-70950000D03*
%TO.P,U3,5,A1*%
%TO.N,Net-(U2-Pin_13)*%
X199500000Y-70950000D03*
%TO.P,U3,6,OE*%
%TO.N,unconnected-(U3-OE-Pad6)*%
X199500000Y-70300000D03*
%TO.P,U3,7,VCCB*%
%TO.N,Net-(J2-Pin_1)*%
X199500000Y-69650000D03*
%TO.P,U3,8,B1*%
%TO.N,Net-(J2-Pin_2)*%
X199500000Y-69000000D03*
%TD*%
D24*
%TO.N,Net-(U2-Pin_12)*%
X212341200Y-71888100D03*
%TO.N,Net-(U2-Pin_13)*%
X211629900Y-70021700D03*
%TO.N,Net-(U2-Pin_3)*%
X194679900Y-79094400D03*
X194272700Y-70525500D03*
%TO.N,Net-(U2-Pin_4)*%
X215461900Y-79209700D03*
%TO.N,Net-(U2-Pin_10)*%
X215461900Y-40456200D03*
%TO.N,Net-(U2-Pin_9)*%
X216252500Y-73402700D03*
%TO.N,Net-(U2-Pin_8)*%
X197688700Y-87920200D03*
%TO.N,Net-(U1-FB)*%
X46616500Y-79630700D03*
X44555500Y-82987500D03*
%TO.N,Net-(J2-Pin_3)*%
X185024700Y-72507100D03*
%TO.N,Net-(J2-Pin_1)*%
X191764300Y-68297800D03*
%TO.N,Net-(J2-Pin_2)*%
X188802100Y-67522000D03*
%TO.N,Net-(J1-Pin_4)*%
X168066700Y-70499200D03*
%TO.N,Net-(J1-Pin_5)*%
X173991100Y-85016700D03*
%TO.N,Net-(J1-Pin_3)*%
X164630900Y-45351900D03*
%TO.N,Net-(U2-Pin_6)*%
X221693100Y-47271200D03*
%TO.N,Net-(U2-Pin_5)*%
X200650900Y-55077000D03*
X209537500Y-64692200D03*
%TO.N,Net-(J3-In)*%
X102898300Y-82113200D03*
%TO.N,Net-(J1-Pin_6)*%
X80642800Y-72000000D03*
X73276300Y-93727200D03*
%TO.N,Net-(5V1-Pin_2)*%
X94011700Y-77657700D03*
X58465300Y-77075000D03*
%TO.N,Net-(5V1-Pin_1)*%
X40617700Y-79209700D03*
%TD*%
D25*
%TO.N,Net-(U2-Pin_12)*%
X196100000Y-70950000D02*
X197201700Y-70950000D01*
X198139800Y-71888100D02*
X197201700Y-70950000D01*
X212341200Y-71888100D02*
X198139800Y-71888100D01*
%TO.N,Net-(U2-Pin_13)*%
X210701600Y-70950000D02*
X199500000Y-70950000D01*
X211629900Y-70021700D02*
X210701600Y-70950000D01*
%TO.N,Net-(U2-Pin_3)*%
X196100000Y-70300000D02*
X197201700Y-70300000D01*
X218500000Y-68940000D02*
X218500000Y-70111700D01*
X194679900Y-80170100D02*
X194679900Y-79094400D01*
X193850000Y-81000000D02*
X194679900Y-80170100D01*
X194498200Y-70300000D02*
X196100000Y-70300000D01*
X194272700Y-70525500D02*
X194498200Y-70300000D01*
X198308400Y-71406700D02*
X197201700Y-70300000D01*
X211971800Y-71406700D02*
X198308400Y-71406700D01*
X213266800Y-70111700D02*
X211971800Y-71406700D01*
X218500000Y-70111700D02*
X213266800Y-70111700D01*
%TO.N,Net-(U2-Pin_4)*%
X197290300Y-79209700D02*
X195500000Y-81000000D01*
X215461900Y-79209700D02*
X197290300Y-79209700D01*
%TO.N,Net-(U2-Pin_10)*%
X167893800Y-40456200D02*
X163850000Y-44500000D01*
X215461900Y-40456200D02*
X167893800Y-40456200D01*
%TO.N,Net-(U2-Pin_9)*%
X214316100Y-73902200D02*
X214080700Y-74137600D01*
X215517600Y-73902200D02*
X214316100Y-73902200D01*
X215635300Y-74019900D02*
X215517600Y-73902200D01*
X216252500Y-73402700D02*
X215635300Y-74019900D01*
X183478900Y-74303900D02*
X182675000Y-73500000D01*
X213914400Y-74303900D02*
X183478900Y-74303900D01*
X214080700Y-74137600D02*
X213914400Y-74303900D01*
X214080700Y-74137600D02*
X213914400Y-74303900D01*
%TO.N,Net-(U2-Pin_8)*%
X199770200Y-87920200D02*
X199850000Y-88000000D01*
X197688700Y-87920200D02*
X199770200Y-87920200D01*
%TO.N,Net-(U1-FB)*%
X56325000Y-77500000D02*
X55500000Y-77500000D01*
X53807200Y-79630700D02*
X46616500Y-79630700D01*
X55500000Y-77937900D02*
X53807200Y-79630700D01*
X55500000Y-77500000D02*
X55500000Y-77937900D01*
X37638900Y-81040000D02*
X38050000Y-81040000D01*
X36772400Y-81906500D02*
X37638900Y-81040000D01*
X36772400Y-82682900D02*
X36772400Y-81906500D01*
X37077000Y-82987500D02*
X36772400Y-82682900D01*
X44555500Y-82987500D02*
X37077000Y-82987500D01*
%TO.N,Net-(J2-Pin_3)*%
X188531800Y-69000000D02*
X185024700Y-72507100D01*
X196100000Y-69000000D02*
X188531800Y-69000000D01*
X185024700Y-72507100D02*
X188531800Y-69000000D01*
X188531800Y-69000000D02*
X185024700Y-72507100D01*
%TO.N,Net-(J2-Pin_1)*%
X198129600Y-69650000D02*
X199500000Y-69650000D01*
X196777400Y-68297800D02*
X198129600Y-69650000D01*
X191764300Y-68297800D02*
X196777400Y-68297800D01*
%TO.N,Net-(J2-Pin_2)*%
X196920300Y-67522000D02*
X198398300Y-69000000D01*
X188802100Y-67522000D02*
X196920300Y-67522000D01*
X199500000Y-69000000D02*
X198398300Y-69000000D01*
%TO.N,Net-(J1-Pin_2)*%
X150138800Y-72000000D02*
X114500000Y-72000000D01*
X157738300Y-64400500D02*
X150138800Y-72000000D01*
X157738300Y-62400000D02*
X157738300Y-64400500D01*
X159620000Y-62400000D02*
X158679200Y-62400000D01*
X158679200Y-62400000D02*
X157738300Y-62400000D01*
X217328300Y-49791700D02*
X218500000Y-49791700D01*
X211395900Y-55724100D02*
X217328300Y-49791700D01*
X165355100Y-55724100D02*
X211395900Y-55724100D01*
X158679200Y-62400000D02*
X165355100Y-55724100D01*
X218500000Y-48620000D02*
X218500000Y-49791700D01*
%TO.N,Net-(J1-Pin_4)*%
X181324200Y-70499200D02*
X184325000Y-73500000D01*
X168066700Y-70499200D02*
X181324200Y-70499200D01*
%TO.N,Net-(J1-Pin_5)*%
X198516700Y-85016700D02*
X173991100Y-85016700D01*
X201500000Y-88000000D02*
X198516700Y-85016700D01*
%TO.N,Net-(J1-Pin_3)*%
X164648100Y-45351900D02*
X165500000Y-44500000D01*
X164630900Y-45351900D02*
X164648100Y-45351900D01*
%TO.N,Net-(U2-Pin_6)*%
X195203800Y-47271200D02*
X221693100Y-47271200D01*
X194475000Y-48000000D02*
X195203800Y-47271200D01*
%TO.N,Net-(U2-Pin_5)*%
X193835000Y-48261100D02*
X200650900Y-55077000D01*
X193835000Y-48000000D02*
X193835000Y-48261100D01*
X210369700Y-63860000D02*
X218500000Y-63860000D01*
X209537500Y-64692200D02*
X210369700Y-63860000D01*
%TO.N,Net-(J3-In)*%
X136811500Y-82113200D02*
X102898300Y-82113200D01*
X139198300Y-84500000D02*
X136811500Y-82113200D01*
X140250000Y-84500000D02*
X139198300Y-84500000D01*
X98115100Y-50784900D02*
X97000000Y-51900000D01*
X109997000Y-50784900D02*
X98115100Y-50784900D01*
X110975000Y-51762900D02*
X109997000Y-50784900D01*
X110975000Y-52000000D02*
X110975000Y-51762900D01*
%TO.N,Net-(U2-Pin_14)*%
X217045400Y-41057900D02*
X217103300Y-41000000D01*
X187088400Y-41057900D02*
X217045400Y-41057900D01*
X180360000Y-47786300D02*
X187088400Y-41057900D01*
X180360000Y-48000000D02*
X180360000Y-47786300D01*
X218500000Y-41000000D02*
X217103300Y-41000000D01*
%TO.N,Net-(J1-Pin_6)*%
X179790000Y-59951700D02*
X218500000Y-59951700D01*
X177341700Y-62400000D02*
X179790000Y-59951700D01*
X218500000Y-58780000D02*
X218500000Y-59951700D01*
X175460000Y-62400000D02*
X176400900Y-62400000D01*
X176400900Y-62400000D02*
X177341700Y-62400000D01*
X113634500Y-72784500D02*
X112850000Y-72000000D01*
X155336300Y-72784500D02*
X113634500Y-72784500D01*
X158689400Y-69431400D02*
X155336300Y-72784500D01*
X169369500Y-69431400D02*
X158689400Y-69431400D01*
X176400900Y-62400000D02*
X169369500Y-69431400D01*
X74297800Y-93727200D02*
X75025000Y-93000000D01*
X73276300Y-93727200D02*
X74297800Y-93727200D01*
X112850000Y-72000000D02*
X80642800Y-72000000D01*
%TO.N,Net-(U1-VBAT_3V8)*%
X82025000Y-78288000D02*
X82025000Y-78500000D01*
X82855600Y-77457400D02*
X82025000Y-78288000D01*
X93361300Y-77457400D02*
X82855600Y-77457400D01*
X93361300Y-77457300D02*
X93361300Y-77457400D01*
X93762600Y-77056000D02*
X93361300Y-77457300D01*
X215464000Y-77056000D02*
X93762600Y-77056000D01*
X218500000Y-74020000D02*
X215464000Y-77056000D01*
X37387000Y-77500000D02*
X53850000Y-77500000D01*
X36754600Y-78132400D02*
X37387000Y-77500000D01*
X36754600Y-78880900D02*
X36754600Y-78132400D01*
X37643700Y-79770000D02*
X36754600Y-78880900D01*
X38050000Y-79770000D02*
X37643700Y-79770000D01*
X65194200Y-78500000D02*
X64418800Y-77724600D01*
X82025000Y-78500000D02*
X65194200Y-78500000D01*
X53850000Y-77132200D02*
X53850000Y-77500000D01*
X54690200Y-76292000D02*
X53850000Y-77132200D01*
X63448600Y-76292000D02*
X54690200Y-76292000D01*
X64418800Y-77262200D02*
X63448600Y-76292000D01*
X64418800Y-77724600D02*
X64418800Y-77262200D01*
X64103500Y-78039900D02*
X64418800Y-77724600D01*
X63491500Y-78039900D02*
X64103500Y-78039900D01*
X63180000Y-77728400D02*
X63491500Y-78039900D01*
X63180000Y-77500000D02*
X63180000Y-77728400D01*
%TO.N,Net-(5V1-Pin_2)*%
X99640000Y-52000000D02*
X99540000Y-51900000D01*
X110335000Y-52000000D02*
X99640000Y-52000000D01*
X152760000Y-59500000D02*
X155660000Y-62400000D01*
X148975000Y-59500000D02*
X152760000Y-59500000D01*
X110971900Y-52849300D02*
X148975000Y-52849300D01*
X110335000Y-52212400D02*
X110971900Y-52849300D01*
X110335000Y-52000000D02*
X110335000Y-52212400D01*
X148975000Y-52849300D02*
X148975000Y-59500000D01*
X181000000Y-48182900D02*
X181000000Y-48000000D01*
X176333600Y-52849300D02*
X181000000Y-48182900D01*
X148975000Y-52849300D02*
X176333600Y-52849300D01*
X54675000Y-77138500D02*
X54675000Y-77500000D01*
X55098500Y-76715000D02*
X54675000Y-77138500D01*
X58238700Y-76715000D02*
X55098500Y-76715000D01*
X58490100Y-76966400D02*
X58238700Y-76715000D01*
X58490100Y-77050200D02*
X58465300Y-77075000D01*
X58490100Y-76966400D02*
X58490100Y-77050200D01*
X43000000Y-82310000D02*
X43000000Y-81040000D01*
X43000000Y-81040000D02*
X43000000Y-79770000D01*
X43000000Y-78500000D02*
X43000000Y-79770000D01*
X93169400Y-78500000D02*
X82665000Y-78500000D01*
X94011700Y-77657700D02*
X93169400Y-78500000D01*
X63820000Y-77301300D02*
X63820000Y-77500000D01*
X63485100Y-76966400D02*
X63820000Y-77301300D01*
X58490100Y-76966400D02*
X63485100Y-76966400D01*
X54063000Y-78500000D02*
X43000000Y-78500000D01*
X54675000Y-77888000D02*
X54063000Y-78500000D01*
X54675000Y-77500000D02*
X54675000Y-77888000D01*
X72178700Y-82310000D02*
X75634600Y-85765900D01*
X43000000Y-82310000D02*
X72178700Y-82310000D01*
X75665000Y-85796300D02*
X75634600Y-85765900D01*
X75665000Y-93000000D02*
X75665000Y-85796300D01*
X82665000Y-78735500D02*
X82665000Y-78500000D01*
X75634600Y-85765900D02*
X82665000Y-78735500D01*
%TO.N,Net-(5V1-Pin_1)*%
X40430600Y-79396800D02*
X39353200Y-79396800D01*
X40617700Y-79209700D02*
X40430600Y-79396800D01*
X38456400Y-78500000D02*
X39353200Y-79396800D01*
X38050000Y-78500000D02*
X38456400Y-78500000D01*
X38427700Y-82310000D02*
X38050000Y-82310000D01*
X39353200Y-81384500D02*
X38427700Y-82310000D01*
X39353200Y-79396800D02*
X39353200Y-81384500D01*
X40896700Y-51603300D02*
X39500000Y-53000000D01*
X42525400Y-51603300D02*
X40896700Y-51603300D01*
X50422100Y-59500000D02*
X42525400Y-51603300D01*
X148015000Y-59500000D02*
X50422100Y-59500000D01*
%TD*%
M02*
