M48
; DRILL file {KiCad 9.0.6} date 2025-12-25T12:20:50+0530
; FORMAT={-:-/ absolute / metric / decimal}
; #@! TF.CreationDate,2025-12-25T12:20:50+05:30
; #@! TF.GenerationSoftware,Kicad,Pcbnew,9.0.6
; #@! TF.FileFunction,Plated,1,2,PTH
FMAT,2
METRIC
; #@! TA.AperFunction,Plated,PTH,ViaDrill
T1C0.300
; #@! TA.AperFunction,Plated,PTH,ComponentDrill
T2C0.900
; #@! TA.AperFunction,Plated,PTH,ComponentDrill
T3C1.190
; #@! TA.AperFunction,Plated,PTH,ComponentDrill
T4C1.800
; #@! TA.AperFunction,Plated,PTH,ComponentDrill
T5C2.000
%
G90
G05
T1
X40.618Y-79.21
X44.555Y-82.987
X46.616Y-79.631
X58.465Y-77.075
X73.276Y-93.727
X80.643Y-72.0
X94.012Y-77.658
X102.898Y-82.113
X164.631Y-45.352
X168.067Y-70.499
X173.991Y-85.017
X185.025Y-72.507
X188.802Y-67.522
X191.764Y-68.298
X194.273Y-70.525
X194.68Y-79.094
X197.689Y-87.92
X200.651Y-55.077
X209.537Y-64.692
X211.63Y-70.022
X212.341Y-71.888
X215.462Y-40.456
X215.462Y-79.21
X216.252Y-73.403
X221.693Y-47.271
T2
X97.0Y-51.9
X99.54Y-51.9
T3
X39.5Y-53.0
X42.04Y-53.0
X176.96Y-90.16
X179.5Y-90.16
X182.04Y-90.16
X184.58Y-90.16
X218.5Y-41.0
X218.5Y-43.54
X218.5Y-46.08
X218.5Y-48.62
X218.5Y-51.16
X218.5Y-53.7
X218.5Y-56.24
X218.5Y-58.78
X218.5Y-61.32
X218.5Y-63.86
X218.5Y-66.4
X218.5Y-68.94
X218.5Y-71.48
X218.5Y-74.02
T4
X155.66Y-62.4
X159.62Y-62.4
X163.58Y-62.4
X167.54Y-62.4
X171.5Y-62.4
X175.46Y-62.4
T5
X91.92Y-56.98
X102.08Y-46.82
M30
